<?xml version="1.0" encoding="UTF-8"?>
<!DOCTYPE svg PUBLIC "-//W3C//DTD SVG 1.1//EN" "http://www.w3.org/Graphics/SVG/1.1/DTD/svg11.dtd">
<svg xmlns="http://www.w3.org/2000/svg" version="1.1" width="310px" height="337px" style="shape-rendering:geometricPrecision; text-rendering:geometricPrecision; image-rendering:optimizeQuality; fill-rule:evenodd; clip-rule:evenodd" xmlns:xlink="http://www.w3.org/1999/xlink">
<g><path style="opacity:0.127" fill="#73a5df" d="M 153.5,3.5 C 152.833,11.1667 152.167,18.8333 151.5,26.5C 151.169,18.4723 151.502,10.4723 152.5,2.5C 153.107,2.62358 153.44,2.95691 153.5,3.5 Z"/></g>
<g><path style="opacity:0.596" fill="#9cc2f1" d="M 128.5,25.5 C 128.265,26.0967 127.765,26.4301 127,26.5C 123.192,25.4679 119.525,24.1345 116,22.5C 115.667,21.5 115.333,20.5 115,19.5C 114.691,20.7659 114.191,21.9326 113.5,23C 111.5,23.3333 109.5,23.6667 107.5,24C 103.448,25.6858 99.7814,27.8525 96.5,30.5C 100.932,25.2804 106.598,22.1137 113.5,21C 112.567,17.5154 111.567,14.0154 110.5,10.5C 110.833,9.83333 111.167,9.16667 111.5,8.5C 113.88,12.5938 115.713,16.9272 117,21.5C 120.777,22.9704 124.61,24.3037 128.5,25.5 Z"/></g>
<g><path style="opacity:0.729" fill="#9bc3f5" d="M 154.5,6.5 C 154.5,12.5 154.5,18.5 154.5,24.5C 159.448,23.2758 164.448,22.1091 169.5,21C 176.218,20.2052 182.884,20.3718 189.5,21.5C 190.93,17.9086 192.097,14.2419 193,10.5C 193.833,9.5 194.667,8.5 195.5,7.5C 195.833,7.83333 196.167,8.16667 196.5,8.5C 194.435,13.3206 193.602,18.3206 194,23.5C 195.518,24.1634 196.685,25.1634 197.5,26.5C 195.063,26.114 193.063,24.9473 191.5,23C 187.555,22.0753 183.555,21.5753 179.5,21.5C 170.573,21.8994 161.906,23.5661 153.5,26.5C 153.176,19.6457 153.509,12.979 154.5,6.5 Z"/></g>
<g><path style="opacity:0.518" fill="#a2c9f4" d="M 90.5,38.5 C 91.0431,38.56 91.3764,38.8933 91.5,39.5C 86.994,50.6814 83.3273,62.0148 80.5,73.5C 81.4629,65.853 83.1296,58.353 85.5,51C 81.36,42.3883 76.6934,34.0549 71.5,26C 71.8333,25.5 72.1667,25 72.5,24.5C 74.1487,25.6477 75.6487,26.981 77,28.5C 80.3021,33.8129 83.6354,39.1462 87,44.5C 88.4307,42.6365 89.5974,40.6365 90.5,38.5 Z"/></g>
<g><path style="opacity:0.525" fill="#a2bcec" d="M 201.5,29.5 C 205.669,32.5051 208.335,36.5051 209.5,41.5C 206.449,37.7771 203.782,33.7771 201.5,29.5 Z"/></g>
<g><path style="opacity:0.714" fill="#a8d0f8" d="M 219.5,66.5 C 216.663,61.5435 214.663,56.2101 213.5,50.5C 214.5,50.5 215.5,50.5 216.5,50.5C 216.918,47.5611 218.418,45.2278 221,43.5C 224.561,36.4483 229.061,30.115 234.5,24.5C 234.833,25 235.167,25.5 235.5,26C 228.641,36.0592 222.308,46.3925 216.5,57C 217.645,60.1224 218.645,63.2891 219.5,66.5 Z"/></g>
<g><path style="opacity:0.635" fill="#a4cef7" d="M 227.5,86.5 C 228.625,84.8712 229.959,83.3712 231.5,82C 230.833,81.3333 230.167,81.3333 229.5,82C 228.315,83.353 226.981,84.5197 225.5,85.5C 224.702,85.0431 224.369,84.3764 224.5,83.5C 229.792,80.512 234.792,77.012 239.5,73C 247.796,65.1917 256.462,57.8584 265.5,51C 266.448,50.5172 267.448,50.3505 268.5,50.5C 268.719,51.675 268.386,52.675 267.5,53.5C 254.153,64.5165 240.82,75.5165 227.5,86.5 Z"/></g>
<g><path style="opacity:0.8" fill="#afd4f6" d="M 79.5,74.5 C 80.1239,74.9169 80.4573,75.5836 80.5,76.5C 79.5997,82.8474 77.933,88.8474 75.5,94.5C 76.0053,91.1589 76.1719,87.8255 76,84.5C 64.858,75.3633 53.6913,66.1966 42.5,57C 40.7727,55.6106 39.4394,53.9439 38.5,52C 38.8499,50.7425 39.5165,50.4092 40.5,51C 52.7409,61.5832 65.2409,71.7499 78,81.5C 78.4396,79.1341 78.9396,76.8008 79.5,74.5 Z"/></g>
<g><path style="opacity:0.086" fill="#95b2ea" d="M 220.5,67.5 C 221.91,71.3967 222.91,75.3967 223.5,79.5C 221.901,76.2163 220.567,72.7163 219.5,69C 219.57,68.2352 219.903,67.7352 220.5,67.5 Z"/></g>
<g><path style="opacity:0.439" fill="#a5c8f4" d="M 227.5,86.5 C 228.175,90.3566 229.342,94.0233 231,97.5C 243.256,95.4481 255.589,95.1148 268,96.5C 274.3,93.2859 280.8,90.4525 287.5,88C 288.833,87.3333 290.167,87.3333 291.5,88C 286.551,91.5514 281.218,94.5514 275.5,97C 280.816,101.105 281.816,105.938 278.5,111.5C 279.468,108.555 279.634,105.555 279,102.5C 276.819,99.7859 274.153,97.7859 271,96.5C 257.2,96.2142 243.366,96.7142 229.5,98C 228.503,95.0148 227.503,92.0148 226.5,89C 226.528,87.9302 226.861,87.0968 227.5,86.5 Z"/></g>
<g><path style="opacity:0.902" fill="#aed2f6" d="M 74.5,100.5 C 74.1667,104.5 73.8333,108.5 73.5,112.5C 67.8197,113.058 62.1531,113.725 56.5,114.5C 58.8766,113.113 61.5432,112.279 64.5,112C 48.1456,104.568 31.9789,97.0681 16,89.5C 15.4092,88.5165 15.7425,87.8499 17,87.5C 32.9355,94.1081 48.7689,100.941 64.5,108C 67.1168,108.822 69.7835,109.322 72.5,109.5C 72.2153,106.171 72.8819,103.171 74.5,100.5 Z"/></g>
<g><path style="opacity:0.141" fill="#90b5ea" d="M 278.5,111.5 C 277.92,113.749 276.587,115.415 274.5,116.5C 274.738,114.522 276.071,112.855 278.5,111.5 Z"/></g>
<g><path style="opacity:0.553" fill="#9ec1f0" d="M 53.5,114.5 C 48.0507,116.616 42.384,118.282 36.5,119.5C 41.6698,116.446 47.3365,114.78 53.5,114.5 Z"/></g>
<g><path style="opacity:0.188" fill="#8bb0e3" d="M 261.5,124.5 C 257.148,127.191 252.481,129.524 247.5,131.5C 246.197,134.645 246.197,137.645 247.5,140.5C 247.44,141.043 247.107,141.376 246.5,141.5C 245.167,137.833 245.167,134.167 246.5,130.5C 251.376,128.099 256.376,126.099 261.5,124.5 Z"/></g>
<g><path style="opacity:0.706" fill="#a7cef4" d="M 249.5,143.5 C 249.5,143.167 249.5,142.833 249.5,142.5C 252.675,141.571 256.009,140.738 259.5,140C 255.83,139.721 252.163,139.888 248.5,140.5C 266.194,136.326 284.194,132.993 302.5,130.5C 303.5,130.833 304.5,131.167 305.5,131.5C 287.177,136.409 268.51,140.409 249.5,143.5 Z"/></g>
<g><path style="opacity:0.643" fill="#a1c7f1" d="M 26.5,125.5 C 26.2663,129.314 25.2663,132.814 23.5,136C 26.3092,136.312 27.9759,137.812 28.5,140.5C 27.3734,139.878 26.3734,139.045 25.5,138C 17.3235,136.421 9.3235,134.421 1.5,132C 2.26304,131.056 3.26304,130.556 4.5,130.5C 10.7345,132.09 17.0678,133.09 23.5,133.5C 23.3455,130.284 24.3455,127.617 26.5,125.5 Z"/></g>
<g><path style="opacity:1" fill="#032ebd" d="M 235.5,136.5 C 237.407,152.701 238.074,169.034 237.5,185.5C 229.833,185.5 222.167,185.5 214.5,185.5C 213.833,185.5 213.167,185.5 212.5,185.5C 211.011,183.355 210.011,181.022 209.5,178.5C 209.528,176.418 208.861,174.584 207.5,173C 197.658,172.175 187.991,172.342 178.5,173.5C 178.5,212.5 178.5,251.5 178.5,290.5C 177.501,251.004 177.168,211.337 177.5,171.5C 187.839,171.334 198.172,171.5 208.5,172C 209.5,172.333 210.5,172.667 211.5,173C 210.446,174.388 210.28,175.888 211,177.5C 213.016,176.045 213.849,174.045 213.5,171.5C 216.779,172.031 218.113,174.031 217.5,177.5C 218.833,177.5 220.167,177.5 221.5,177.5C 222.836,183.702 224.502,183.869 226.5,178C 224.188,176.686 222.188,175.019 220.5,173C 221.742,171.349 222.576,169.515 223,167.5C 223.333,168.833 223.667,170.167 224,171.5C 224.167,170.667 224.333,169.833 224.5,169C 225.039,163.448 224.373,158.281 222.5,153.5C 220.869,155.297 218.869,156.464 216.5,157C 196.169,157.5 175.836,157.667 155.5,157.5C 155.579,158.93 155.246,160.264 154.5,161.5C 155.311,162.216 155.978,163.05 156.5,164C 154.357,206.95 153.024,249.783 152.5,292.5C 152.5,247.167 152.5,201.833 152.5,156.5C 173.511,156.833 194.511,156.5 215.5,155.5C 222.161,149.173 228.827,142.84 235.5,136.5 Z"/></g>
<g><path style="opacity:1" fill="#075ee9" d="M 223.5,131.5 C 228.64,132.488 233.974,132.821 239.5,132.5C 239.5,136.167 239.5,139.833 239.5,143.5C 239.167,143.5 238.833,143.5 238.5,143.5C 238.665,140.482 238.498,137.482 238,134.5C 237.292,135.381 236.458,136.047 235.5,136.5C 228.827,142.84 222.161,149.173 215.5,155.5C 194.511,156.5 173.511,156.833 152.5,156.5C 152.5,201.833 152.5,247.167 152.5,292.5C 152.167,292.5 151.833,292.5 151.5,292.5C 151.667,247.499 151.5,202.499 151,157.5C 150.292,158.381 149.458,159.047 148.5,159.5C 148.423,158.25 147.756,157.417 146.5,157C 125.503,156.5 104.503,156.333 83.5,156.5C 96.3373,155.587 109.337,154.753 122.5,154C 124.491,153.626 126.158,152.793 127.5,151.5C 132.616,150.194 137.949,149.527 143.5,149.5C 155.575,148.486 167.575,146.819 179.5,144.5C 182.05,144.383 184.05,143.383 185.5,141.5C 185.5,141.167 185.5,140.833 185.5,140.5C 198.312,138.093 210.978,135.093 223.5,131.5 Z"/></g>
<g><path style="opacity:1" fill="#1359ce" d="M 127.5,151.5 C 126.158,152.793 124.491,153.626 122.5,154C 109.337,154.753 96.3373,155.587 83.5,156.5C 82.8333,157.167 82.1667,157.833 81.5,158.5C 81.7413,156.114 81.0746,154.114 79.5,152.5C 95.5172,152.7 111.517,152.366 127.5,151.5 Z"/></g>
<g><path style="opacity:1" fill="#12a4f7" d="M 61.5,149.5 C 64.1667,149.833 66.8333,150.167 69.5,150.5C 72.5443,152.011 75.8776,152.678 79.5,152.5C 81.0746,154.114 81.7413,156.114 81.5,158.5C 80.6968,164.337 79.3635,170.003 77.5,175.5C 77.5,175.833 77.5,176.167 77.5,176.5C 73.2458,178.749 69.2458,181.415 65.5,184.5C 64.1667,185.167 63.1667,186.167 62.5,187.5C 61.5046,175.011 61.1713,162.344 61.5,149.5 Z"/></g>
<g><path style="opacity:1" fill="#012dc8" d="M 178.5,290.5 C 178.833,290.5 179.167,290.5 179.5,290.5C 179.833,290.5 180.167,290.5 180.5,290.5C 184.634,291.485 188.968,291.818 193.5,291.5C 193.5,302.167 193.5,312.833 193.5,323.5C 193.167,323.5 192.833,323.5 192.5,323.5C 167.167,323.5 141.833,323.5 116.5,323.5C 116.297,321.61 116.963,320.11 118.5,319C 121.007,318.907 123.174,318.074 125,316.5C 125.414,316.957 125.914,317.291 126.5,317.5C 127.74,314.255 130.073,312.588 133.5,312.5C 134.346,307.316 137.346,303.983 142.5,302.5C 144.856,299.814 147.189,297.147 149.5,294.5C 149.833,293.5 150.5,292.833 151.5,292.5C 151.833,292.5 152.167,292.5 152.5,292.5C 153.024,249.783 154.357,206.95 156.5,164C 155.978,163.05 155.311,162.216 154.5,161.5C 155.246,160.264 155.579,158.93 155.5,157.5C 175.836,157.667 196.169,157.5 216.5,157C 218.869,156.464 220.869,155.297 222.5,153.5C 224.373,158.281 225.039,163.448 224.5,169C 224.333,169.833 224.167,170.667 224,171.5C 223.667,170.167 223.333,168.833 223,167.5C 222.576,169.515 221.742,171.349 220.5,173C 222.188,175.019 224.188,176.686 226.5,178C 224.502,183.869 222.836,183.702 221.5,177.5C 220.167,177.5 218.833,177.5 217.5,177.5C 218.113,174.031 216.779,172.031 213.5,171.5C 213.849,174.045 213.016,176.045 211,177.5C 210.28,175.888 210.446,174.388 211.5,173C 210.5,172.667 209.5,172.333 208.5,172C 198.172,171.5 187.839,171.334 177.5,171.5C 177.168,211.337 177.501,251.004 178.5,290.5 Z"/></g>
<g><path style="opacity:1" fill="#012dc7" d="M 125.5,174.5 C 124.833,174.167 124.167,173.833 123.5,173.5C 119.049,172.173 114.216,171.506 109,171.5C 103.92,171.512 98.9202,171.846 94,172.5C 91.1161,167.486 88.9494,167.986 87.5,174C 93.2331,183.968 90.2331,187.802 78.5,185.5C 74.8333,185.333 71.1667,185.167 67.5,185C 69.6188,182.607 72.2855,181.274 75.5,181C 77.0368,179.89 77.7035,178.39 77.5,176.5C 77.5,176.167 77.5,175.833 77.5,175.5C 78.4584,175.047 79.2917,174.381 80,173.5C 80.036,171.059 80.8693,169.059 82.5,167.5C 83.5975,164.247 84.2642,160.914 84.5,157.5C 103.17,157.333 121.836,157.5 140.5,158C 141.022,158.561 141.355,159.228 141.5,160C 138.426,164.102 135.093,168.102 131.5,172C 129.783,173.559 127.783,174.392 125.5,174.5 Z"/></g>
<g><path style="opacity:0.106" fill="#72a8e8" d="M 249.5,142.5 C 249.5,142.833 249.5,143.167 249.5,143.5C 248.5,143.5 247.5,143.5 246.5,143.5C 246.5,152.833 246.5,162.167 246.5,171.5C 246.5,172.167 246.167,172.5 245.5,172.5C 245.5,162.5 245.5,152.5 245.5,142.5C 246.833,142.5 248.167,142.5 249.5,142.5 Z"/></g>
<g><path style="opacity:0.289" fill="#7aa6d9" d="M 52.5,152.5 C 53.5,152.5 54.5,152.5 55.5,152.5C 55.5,159.167 55.5,165.833 55.5,172.5C 54.209,172.737 53.209,172.404 52.5,171.5C 53.8164,168.913 54.483,165.913 54.5,162.5C 54.4094,158.902 53.7427,155.569 52.5,152.5 Z"/></g>
<g><path style="opacity:1" fill="#0439c8" d="M 83.5,156.5 C 104.503,156.333 125.503,156.5 146.5,157C 147.756,157.417 148.423,158.25 148.5,159.5C 146.809,160.864 145.142,162.197 143.5,163.5C 138.71,166.456 134.71,170.289 131.5,175C 129.76,176.694 127.76,177.861 125.5,178.5C 125.5,177.167 125.5,175.833 125.5,174.5C 127.783,174.392 129.783,173.559 131.5,172C 135.093,168.102 138.426,164.102 141.5,160C 141.355,159.228 141.022,158.561 140.5,158C 121.836,157.5 103.17,157.333 84.5,157.5C 84.2642,160.914 83.5975,164.247 82.5,167.5C 80.8693,169.059 80.036,171.059 80,173.5C 79.2917,174.381 78.4584,175.047 77.5,175.5C 79.3635,170.003 80.6968,164.337 81.5,158.5C 82.1667,157.833 82.8333,157.167 83.5,156.5 Z"/></g>
<g><path style="opacity:1" fill="#0b2eb3" d="M 123.5,173.5 C 114.475,173.168 105.475,173.502 96.5,174.5C 93.6215,178.267 91.2882,182.267 89.5,186.5C 81.0968,187.134 73.0968,186.467 65.5,184.5C 69.2458,181.415 73.2458,178.749 77.5,176.5C 77.7035,178.39 77.0368,179.89 75.5,181C 72.2855,181.274 69.6188,182.607 67.5,185C 71.1667,185.167 74.8333,185.333 78.5,185.5C 90.2331,187.802 93.2331,183.968 87.5,174C 88.9494,167.986 91.1161,167.486 94,172.5C 98.9202,171.846 103.92,171.512 109,171.5C 114.216,171.506 119.049,172.173 123.5,173.5 Z"/></g>
<g><path style="opacity:1" fill="#0928a1" d="M 238.5,143.5 C 238.5,157.833 238.5,172.167 238.5,186.5C 230.316,186.826 222.316,186.492 214.5,185.5C 222.167,185.5 229.833,185.5 237.5,185.5C 238.074,169.034 237.407,152.701 235.5,136.5C 236.458,136.047 237.292,135.381 238,134.5C 238.498,137.482 238.665,140.482 238.5,143.5 Z"/></g>
<g><path style="opacity:1" fill="#0e2a97" d="M 178.5,173.5 C 187.991,172.342 197.658,172.175 207.5,173C 208.861,174.584 209.528,176.418 209.5,178.5C 208.5,177.167 207.5,175.833 206.5,174.5C 197.348,173.506 188.015,173.173 178.5,173.5 Z"/></g>
<g><path style="opacity:0.698" fill="#abd1f3" d="M 52.5,171.5 C 53.209,172.404 54.209,172.737 55.5,172.5C 55.5,175.167 55.5,177.833 55.5,180.5C 55.5,184.5 55.5,188.5 55.5,192.5C 54.5104,186.69 54.1771,180.69 54.5,174.5C 44.4764,175.735 34.4764,176.735 24.5,177.5C 20.6877,176.676 16.6877,176.176 12.5,176C 19.3676,175.608 26.0343,174.775 32.5,173.5C 39.2659,173.357 45.9326,172.69 52.5,171.5 Z"/></g>
<g><path style="opacity:0.761" fill="#b9def7" d="M 246.5,171.5 C 252.849,172.12 259.182,172.786 265.5,173.5C 274.322,174.61 283.322,175.443 292.5,176C 287.649,176.174 282.982,176.674 278.5,177.5C 272.533,176.79 266.533,176.123 260.5,175.5C 255.695,174.513 250.695,174.179 245.5,174.5C 245.5,173.833 245.5,173.167 245.5,172.5C 246.167,172.5 246.5,172.167 246.5,171.5 Z"/></g>
<g><path style="opacity:0.376" fill="#96c4f6" d="M 32.5,173.5 C 26.0343,174.775 19.3676,175.608 12.5,176C 16.6877,176.176 20.6877,176.676 24.5,177.5C 16.1844,178.185 7.85102,178.518 -0.5,178.5C -0.5,177.833 -0.5,177.167 -0.5,176.5C 10.3643,174.526 21.3643,173.526 32.5,173.5 Z"/></g>
<g><path style="opacity:0.669" fill="#8cbef3" d="M 265.5,173.5 C 279.235,173.245 292.901,174.079 306.5,176C 306.957,176.414 307.291,176.914 307.5,177.5C 304.5,177.833 301.5,178.167 298.5,178.5C 291.836,178.046 285.17,177.712 278.5,177.5C 282.982,176.674 287.649,176.174 292.5,176C 283.322,175.443 274.322,174.61 265.5,173.5 Z"/></g>
<g><path style="opacity:1" fill="#0c55d1" d="M 143.5,163.5 C 138.21,171.79 131.544,178.79 123.5,184.5C 123.5,180.833 123.5,177.167 123.5,173.5C 124.167,173.833 124.833,174.167 125.5,174.5C 125.5,175.833 125.5,177.167 125.5,178.5C 127.76,177.861 129.76,176.694 131.5,175C 134.71,170.289 138.71,166.456 143.5,163.5 Z"/></g>
<g><path style="opacity:1" fill="#f0f7fa" d="M 153.5,3.5 C 153.557,4.60895 153.89,5.60895 154.5,6.5C 153.509,12.979 153.176,19.6457 153.5,26.5C 161.906,23.5661 170.573,21.8994 179.5,21.5C 183.555,21.5753 187.555,22.0753 191.5,23C 193.063,24.9473 195.063,26.114 197.5,26.5C 199.404,26.7376 200.738,27.7376 201.5,29.5C 203.782,33.7771 206.449,37.7771 209.5,41.5C 211.607,44.0567 212.941,47.0567 213.5,50.5C 214.663,56.2101 216.663,61.5435 219.5,66.5C 220.167,66.5 220.5,66.8333 220.5,67.5C 219.903,67.7352 219.57,68.2352 219.5,69C 220.567,72.7163 221.901,76.2163 223.5,79.5C 224.434,80.5676 224.768,81.901 224.5,83.5C 224.369,84.3764 224.702,85.0431 225.5,85.5C 226.981,84.5197 228.315,83.353 229.5,82C 230.167,81.3333 230.833,81.3333 231.5,82C 229.959,83.3712 228.625,84.8712 227.5,86.5C 226.861,87.0968 226.528,87.9302 226.5,89C 227.503,92.0148 228.503,95.0148 229.5,98C 243.366,96.7142 257.2,96.2142 271,96.5C 274.153,97.7859 276.819,99.7859 279,102.5C 279.634,105.555 279.468,108.555 278.5,111.5C 276.071,112.855 274.738,114.522 274.5,116.5C 271.012,120.417 266.679,123.083 261.5,124.5C 256.376,126.099 251.376,128.099 246.5,130.5C 245.167,134.167 245.167,137.833 246.5,141.5C 247.107,141.376 247.44,141.043 247.5,140.5C 247.833,140.5 248.167,140.5 248.5,140.5C 252.163,139.888 255.83,139.721 259.5,140C 256.009,140.738 252.675,141.571 249.5,142.5C 248.167,142.5 246.833,142.5 245.5,142.5C 245.5,152.5 245.5,162.5 245.5,172.5C 245.5,173.167 245.5,173.833 245.5,174.5C 244.833,180.346 244.167,186.346 243.5,192.5C 233.038,193.145 222.705,193.811 212.5,194.5C 207.319,192.297 204.319,188.297 203.5,182.5C 203.573,180.973 202.906,179.973 201.5,179.5C 199.369,178.686 197.036,178.186 194.5,178C 193.663,176.989 193.33,175.822 193.5,174.5C 197.833,174.5 202.167,174.5 206.5,174.5C 207.5,175.833 208.5,177.167 209.5,178.5C 210.011,181.022 211.011,183.355 212.5,185.5C 212.611,186.117 212.944,186.617 213.5,187C 222.16,187.5 230.827,187.666 239.5,187.5C 239.5,172.833 239.5,158.167 239.5,143.5C 239.5,139.833 239.5,136.167 239.5,132.5C 233.974,132.821 228.64,132.488 223.5,131.5C 238.447,127.697 252.78,122.197 266.5,115C 269.717,113.285 272.05,110.785 273.5,107.5C 275.321,103.784 273.987,101.951 269.5,102C 257.326,101.174 245.326,101.34 233.5,102.5C 231.167,102.5 228.833,102.5 226.5,102.5C 224.51,98.2128 222.51,93.8794 220.5,89.5C 216.763,76.2903 212.43,63.2903 207.5,50.5C 205.253,44.9994 202.253,39.9994 198.5,35.5C 196.275,32.1114 193.275,29.6114 189.5,28C 184.246,26.7288 178.913,26.2288 173.5,26.5C 162.052,29.0941 150.719,32.0941 139.5,35.5C 134.654,34.7409 129.988,33.4076 125.5,31.5C 110.04,24.4725 99.5403,29.1392 94,45.5C 91.3814,52.3084 89.548,59.3084 88.5,66.5C 84.9417,76.7504 82.6084,87.4171 81.5,98.5C 80.0462,104.552 78.3795,110.552 76.5,116.5C 61.9518,117.309 47.9518,120.476 34.5,126C 29.2026,130.559 29.5359,134.892 35.5,139C 42.4754,143.26 49.8087,146.427 57.5,148.5C 54.0901,148.457 50.7568,148.957 47.5,150C 49.3146,150.757 50.9812,151.59 52.5,152.5C 43.0298,151.098 35.0298,147.098 28.5,140.5C 27.9759,137.812 26.3092,136.312 23.5,136C 25.2663,132.814 26.2663,129.314 26.5,125.5C 28.8067,122.004 32.14,120.004 36.5,119.5C 42.384,118.282 48.0507,116.616 53.5,114.5C 54.5,114.5 55.5,114.5 56.5,114.5C 62.1531,113.725 67.8197,113.058 73.5,112.5C 73.8333,108.5 74.1667,104.5 74.5,100.5C 74.2053,98.2646 74.5386,96.2646 75.5,94.5C 77.933,88.8474 79.5997,82.8474 80.5,76.5C 80.4573,75.5836 80.1239,74.9169 79.5,74.5C 79.5,73.8333 79.8333,73.5 80.5,73.5C 83.3273,62.0148 86.994,50.6814 91.5,39.5C 91.3764,38.8933 91.0431,38.56 90.5,38.5C 92.0252,35.437 94.0252,32.7703 96.5,30.5C 99.7814,27.8525 103.448,25.6858 107.5,24C 109.5,23.6667 111.5,23.3333 113.5,23C 114.191,21.9326 114.691,20.7659 115,19.5C 115.333,20.5 115.667,21.5 116,22.5C 119.525,24.1345 123.192,25.4679 127,26.5C 127.765,26.4301 128.265,26.0967 128.5,25.5C 136.008,29.0832 143.674,29.4165 151.5,26.5C 152.167,18.8333 152.833,11.1667 153.5,3.5 Z"/></g>
<g><path style="opacity:1" fill="#01134b" d="M 148.5,147.5 C 146.833,148.167 145.167,148.833 143.5,149.5C 137.949,149.527 132.616,150.194 127.5,151.5C 111.517,152.366 95.5172,152.7 79.5,152.5C 75.8776,152.678 72.5443,152.011 69.5,150.5C 83.1539,151.479 96.8206,151.645 110.5,151C 123.08,149.743 135.747,148.576 148.5,147.5 Z"/></g>
<g><path style="opacity:1" fill="#1757c9" d="M 185.5,141.5 C 184.05,143.383 182.05,144.383 179.5,144.5C 167.575,146.819 155.575,148.486 143.5,149.5C 145.167,148.833 146.833,148.167 148.5,147.5C 149.167,147.5 149.833,147.5 150.5,147.5C 162.148,145.392 173.814,143.392 185.5,141.5 Z"/></g>
<g><path style="opacity:1" fill="#020f42" d="M 185.5,140.5 C 185.5,140.833 185.5,141.167 185.5,141.5C 173.814,143.392 162.148,145.392 150.5,147.5C 152.914,145.787 155.581,144.287 158.5,143C 167.544,142.545 176.544,141.711 185.5,140.5 Z"/></g>
<g><path style="opacity:1" fill="#080f2f" d="M 273.5,107.5 C 272.05,110.785 269.717,113.285 266.5,115C 252.78,122.197 238.447,127.697 223.5,131.5C 210.978,135.093 198.312,138.093 185.5,140.5C 176.544,141.711 167.544,142.545 158.5,143C 155.581,144.287 152.914,145.787 150.5,147.5C 149.833,147.5 149.167,147.5 148.5,147.5C 135.747,148.576 123.08,149.743 110.5,151C 96.8206,151.645 83.1539,151.479 69.5,150.5C 66.8333,150.167 64.1667,149.833 61.5,149.5C 60.4324,148.566 59.099,148.232 57.5,148.5C 49.8087,146.427 42.4754,143.26 35.5,139C 29.5359,134.892 29.2026,130.559 34.5,126C 47.9518,120.476 61.9518,117.309 76.5,116.5C 76.5,118.5 76.5,120.5 76.5,122.5C 78.1788,122.285 79.1788,122.952 79.5,124.5C 110.093,126.222 140.76,125.222 171.5,121.5C 173.045,121.511 174.378,121.844 175.5,122.5C 172.285,124.038 169.618,126.371 167.5,129.5C 164.914,130.48 162.247,130.813 159.5,130.5C 159.682,132.591 159.348,134.591 158.5,136.5C 156.138,137.271 153.804,138.105 151.5,139C 125.038,143.641 98.3711,145.641 71.5,145C 96.2789,146.91 120.946,145.91 145.5,142C 156.832,139.778 168.165,137.778 179.5,136C 193.841,131.248 208.508,128.081 223.5,126.5C 223.5,127.5 223.5,128.5 223.5,129.5C 226.311,129.174 228.978,128.341 231.5,127C 233.065,124.433 235.232,122.6 238,121.5C 241.315,120.372 244.649,119.372 248,118.5C 248.333,118.833 248.667,119.167 249,119.5C 249.991,118.061 251.324,117.061 253,116.5C 255.077,115.622 257.41,115.622 260,116.5C 260.311,115.258 259.811,114.258 258.5,113.5C 261.268,111.254 264.268,110.588 267.5,111.5C 269.214,109.65 271.214,108.316 273.5,107.5 Z"/></g>
<g><path style="opacity:1" fill="#5b4237" d="M 188.5,116.5 C 173.77,119.297 158.77,120.963 143.5,121.5C 143.918,120.778 144.584,120.278 145.5,120C 152.835,119.452 160.169,118.952 167.5,118.5C 174.468,117.594 181.468,116.927 188.5,116.5 Z"/></g>
<g><path style="opacity:1" fill="#101227" d="M 226.5,102.5 C 228.833,102.5 231.167,102.5 233.5,102.5C 234.239,102.369 234.906,102.536 235.5,103C 234.207,103.49 232.873,103.657 231.5,103.5C 231.71,107.684 230.377,111.184 227.5,114C 218.567,114.09 209.567,114.757 200.5,116C 199.663,117.011 199.33,118.178 199.5,119.5C 202.482,119.104 205.149,119.771 207.5,121.5C 196.519,121.865 185.852,122.198 175.5,122.5C 174.378,121.844 173.045,121.511 171.5,121.5C 140.76,125.222 110.093,126.222 79.5,124.5C 93.0105,124.829 106.344,124.496 119.5,123.5C 127.729,123.822 135.729,123.155 143.5,121.5C 158.77,120.963 173.77,119.297 188.5,116.5C 195.048,116.074 201.382,115.074 207.5,113.5C 213.475,113.18 219.475,111.846 225.5,109.5C 226.474,107.257 226.808,104.924 226.5,102.5 Z"/></g>
<g><path style="opacity:1" fill="#0b183a" d="M 233.5,102.5 C 245.326,101.34 257.326,101.174 269.5,102C 273.987,101.951 275.321,103.784 273.5,107.5C 271.214,108.316 269.214,109.65 267.5,111.5C 264.268,110.588 261.268,111.254 258.5,113.5C 259.811,114.258 260.311,115.258 260,116.5C 257.41,115.622 255.077,115.622 253,116.5C 251.324,117.061 249.991,118.061 249,119.5C 248.667,119.167 248.333,118.833 248,118.5C 244.649,119.372 241.315,120.372 238,121.5C 235.232,122.6 233.065,124.433 231.5,127C 228.978,128.341 226.311,129.174 223.5,129.5C 223.5,128.5 223.5,127.5 223.5,126.5C 208.508,128.081 193.841,131.248 179.5,136C 168.165,137.778 156.832,139.778 145.5,142C 120.946,145.91 96.2789,146.91 71.5,145C 98.3711,145.641 125.038,143.641 151.5,139C 153.804,138.105 156.138,137.271 158.5,136.5C 159.348,134.591 159.682,132.591 159.5,130.5C 162.247,130.813 164.914,130.48 167.5,129.5C 169.618,126.371 172.285,124.038 175.5,122.5C 185.852,122.198 196.519,121.865 207.5,121.5C 205.149,119.771 202.482,119.104 199.5,119.5C 199.33,118.178 199.663,117.011 200.5,116C 209.567,114.757 218.567,114.09 227.5,114C 230.377,111.184 231.71,107.684 231.5,103.5C 232.873,103.657 234.207,103.49 235.5,103C 234.906,102.536 234.239,102.369 233.5,102.5 Z"/></g>
<g><path style="opacity:1" fill="#4a3227" d="M 220.5,89.5 C 222.51,93.8794 224.51,98.2128 226.5,102.5C 226.808,104.924 226.474,107.257 225.5,109.5C 219.475,111.846 213.475,113.18 207.5,113.5C 206.841,110.545 206.508,107.545 206.5,104.5C 205.178,104.67 204.011,104.337 203,103.5C 202.744,100.443 202.244,97.443 201.5,94.5C 192.518,93.3347 183.518,93.168 174.5,94C 168.728,97.0503 162.895,97.217 157,94.5C 154.538,95.1595 152.038,95.4928 149.5,95.5C 141.517,96.1655 133.517,96.4988 125.5,96.5C 125.5,96.1667 125.5,95.8333 125.5,95.5C 126.167,95.5 126.833,95.5 127.5,95.5C 146.34,94.4905 165.006,93.1572 183.5,91.5C 194.5,91.5 205.5,91.5 216.5,91.5C 212.979,92.1663 209.313,92.8329 205.5,93.5C 207.215,99.1761 209.382,104.509 212,109.5C 215.821,110.675 219.654,110.508 223.5,109C 226.066,107.374 225.899,105.874 223,104.5C 222.58,100.048 221.747,95.7147 220.5,91.5C 220.5,90.8333 220.5,90.1667 220.5,89.5 Z"/></g>
<g><path style="opacity:1" fill="#583822" d="M 81.5,98.5 C 83.3972,99.8048 85.7305,100.471 88.5,100.5C 93.4959,99.6656 98.4959,98.9989 103.5,98.5C 99.6937,101.034 95.3604,102.034 90.5,101.5C 90.5,102.5 90.5,103.5 90.5,104.5C 87.525,104.713 84.8584,105.713 82.5,107.5C 85.0981,108.568 87.5981,108.235 90,106.5C 91.0588,106.63 91.8921,107.13 92.5,108C 89.6118,108.681 88.9452,110.181 90.5,112.5C 90.3382,114.841 89.3382,116.675 87.5,118C 90.4171,120.61 93.4171,122.277 96.5,123C 99.146,123.497 101.813,123.664 104.5,123.5C 106.833,123.5 109.167,123.5 111.5,123.5C 114.167,123.5 116.833,123.5 119.5,123.5C 106.344,124.496 93.0105,124.829 79.5,124.5C 79.1788,122.952 78.1788,122.285 76.5,122.5C 76.5,120.5 76.5,118.5 76.5,116.5C 78.3795,110.552 80.0462,104.552 81.5,98.5 Z"/></g>
<g><path style="opacity:1" fill="#52311d" d="M 216.5,91.5 C 217.833,91.5 219.167,91.5 220.5,91.5C 221.747,95.7147 222.58,100.048 223,104.5C 225.899,105.874 226.066,107.374 223.5,109C 219.654,110.508 215.821,110.675 212,109.5C 209.382,104.509 207.215,99.1761 205.5,93.5C 209.313,92.8329 212.979,92.1663 216.5,91.5 Z"/></g>
<g><path style="opacity:1" fill="#643d21" d="M 149.5,95.5 C 150.952,96.3019 152.618,96.8019 154.5,97C 153.5,97.3333 152.5,97.6667 151.5,98C 154.596,98.7846 157.263,99.6179 159.5,100.5C 157.851,101.988 155.851,102.988 153.5,103.5C 155.387,104.666 157.053,105.332 158.5,105.5C 150.557,108.552 150.891,110.385 159.5,111C 161.274,107.985 161.774,108.485 161,112.5C 158.867,114.138 156.367,114.971 153.5,115C 154.6,116.023 155.933,116.523 157.5,116.5C 160.482,115.668 163.482,115.501 166.5,116C 167.252,116.671 167.586,117.504 167.5,118.5C 160.169,118.952 152.835,119.452 145.5,120C 144.584,120.278 143.918,120.778 143.5,121.5C 135.729,123.155 127.729,123.822 119.5,123.5C 116.833,123.5 114.167,123.5 111.5,123.5C 119.627,122.045 127.96,121.045 136.5,120.5C 135.359,119.575 135.359,118.741 136.5,118C 138.941,117.964 140.941,117.131 142.5,115.5C 139.832,114.262 137.166,114.262 134.5,115.5C 126.627,113.979 126.794,112.646 135,111.5C 137.462,112.159 139.962,112.493 142.5,112.5C 142.5,109.833 142.5,107.167 142.5,104.5C 140.897,104.688 139.563,104.188 138.5,103C 141.882,102.824 145.215,102.324 148.5,101.5C 146.954,100.316 145.287,99.316 143.5,98.5C 130.664,96.8136 117.997,97.4802 105.5,100.5C 100.783,104.273 98.4495,109.273 98.5,115.5C 99.5762,119.041 101.576,121.708 104.5,123.5C 101.813,123.664 99.146,123.497 96.5,123C 93.4171,122.277 90.4171,120.61 87.5,118C 89.3382,116.675 90.3382,114.841 90.5,112.5C 88.9452,110.181 89.6118,108.681 92.5,108C 91.8921,107.13 91.0588,106.63 90,106.5C 87.5981,108.235 85.0981,108.568 82.5,107.5C 84.8584,105.713 87.525,104.713 90.5,104.5C 90.5,103.5 90.5,102.5 90.5,101.5C 95.3604,102.034 99.6937,101.034 103.5,98.5C 110.797,97.5103 118.13,96.8436 125.5,96.5C 133.517,96.4988 141.517,96.1655 149.5,95.5 Z"/></g>
<g><path style="opacity:1" fill="#744722" d="M 111.5,123.5 C 109.167,123.5 106.833,123.5 104.5,123.5C 101.576,121.708 99.5762,119.041 98.5,115.5C 98.4495,109.273 100.783,104.273 105.5,100.5C 117.997,97.4802 130.664,96.8136 143.5,98.5C 145.287,99.316 146.954,100.316 148.5,101.5C 145.215,102.324 141.882,102.824 138.5,103C 139.563,104.188 140.897,104.688 142.5,104.5C 142.5,107.167 142.5,109.833 142.5,112.5C 139.962,112.493 137.462,112.159 135,111.5C 126.794,112.646 126.627,113.979 134.5,115.5C 137.166,114.262 139.832,114.262 142.5,115.5C 140.941,117.131 138.941,117.964 136.5,118C 135.359,118.741 135.359,119.575 136.5,120.5C 127.96,121.045 119.627,122.045 111.5,123.5 Z"/></g>
<g><path style="opacity:1" fill="#101023" d="M 88.5,66.5 C 88.6889,71.1614 88.0223,75.6614 86.5,80C 87.0814,80.8926 87.4148,81.8926 87.5,83C 86.7589,85.8062 85.7589,88.4729 84.5,91C 85.1662,92.6687 85.1662,94.1687 84.5,95.5C 85.5217,96.354 86.3551,97.354 87,98.5C 92.083,97.6929 97.2497,97.1929 102.5,97C 101.328,96.5814 100.328,95.9147 99.5,95C 108.159,94.9274 116.826,95.0941 125.5,95.5C 125.5,95.8333 125.5,96.1667 125.5,96.5C 118.13,96.8436 110.797,97.5103 103.5,98.5C 98.4959,98.9989 93.4959,99.6656 88.5,100.5C 85.7305,100.471 83.3972,99.8048 81.5,98.5C 82.6084,87.4171 84.9417,76.7504 88.5,66.5 Z"/></g>
<g><path style="opacity:1" fill="#56341c" d="M 207.5,113.5 C 201.382,115.074 195.048,116.074 188.5,116.5C 181.468,116.927 174.468,117.594 167.5,118.5C 167.586,117.504 167.252,116.671 166.5,116C 163.482,115.501 160.482,115.668 157.5,116.5C 155.933,116.523 154.6,116.023 153.5,115C 156.367,114.971 158.867,114.138 161,112.5C 161.774,108.485 161.274,107.985 159.5,111C 150.891,110.385 150.557,108.552 158.5,105.5C 157.053,105.332 155.387,104.666 153.5,103.5C 155.851,102.988 157.851,101.988 159.5,100.5C 157.263,99.6179 154.596,98.7846 151.5,98C 152.5,97.6667 153.5,97.3333 154.5,97C 152.618,96.8019 150.952,96.3019 149.5,95.5C 152.038,95.4928 154.538,95.1595 157,94.5C 162.895,97.217 168.728,97.0503 174.5,94C 183.518,93.168 192.518,93.3347 201.5,94.5C 202.244,97.443 202.744,100.443 203,103.5C 204.011,104.337 205.178,104.67 206.5,104.5C 206.508,107.545 206.841,110.545 207.5,113.5 Z"/></g>
<g><path style="opacity:1" fill="#15101f" d="M 183.5,91.5 C 165.006,93.1572 146.34,94.4905 127.5,95.5C 145.854,91.9678 164.52,90.6344 183.5,91.5 Z"/></g>
<g><path style="opacity:1" fill="#0d3060" d="M 203.5,60.5 C 200.999,68.7754 195.332,73.2754 186.5,74C 180.833,74.6667 175.167,74.6667 169.5,74C 160.608,71.7146 153.108,67.2146 147,60.5C 145.155,58.1332 143.989,55.4665 143.5,52.5C 142.925,49.4285 144.091,47.4285 147,46.5C 149.294,48.063 151.794,49.2296 154.5,50C 167.793,51.6458 181.126,52.8125 194.5,53.5C 196.808,53.6353 198.808,52.9686 200.5,51.5C 203.076,53.8781 204.076,56.8781 203.5,60.5 Z"/></g>
<g><path style="opacity:1" fill="#0c1f40" d="M 198.5,35.5 C 202.253,39.9994 205.253,44.9994 207.5,50.5C 206.883,50.6107 206.383,50.944 206,51.5C 205.159,54.6282 204.325,57.6282 203.5,60.5C 204.076,56.8781 203.076,53.8781 200.5,51.5C 198.808,52.9686 196.808,53.6353 194.5,53.5C 181.126,52.8125 167.793,51.6458 154.5,50C 151.794,49.2296 149.294,48.063 147,46.5C 144.091,47.4285 142.925,49.4285 143.5,52.5C 142.527,50.0521 142.194,47.3854 142.5,44.5C 144.379,43.6586 146.379,43.3253 148.5,43.5C 150.562,44.7763 152.896,45.6097 155.5,46C 167.14,47.36 178.807,47.6934 190.5,47C 197.459,46.4273 200.125,42.5939 198.5,35.5 Z"/></g>
<g><path style="opacity:1" fill="#06102e" d="M 125.5,31.5 C 120.053,31.1287 114.72,30.6287 109.5,30C 107.974,31.8871 105.974,32.8871 103.5,33C 101.393,34.2635 100.393,36.0968 100.5,38.5C 103.358,38.4046 105.691,37.2379 107.5,35C 110.833,34.3333 114.167,34.3333 117.5,35C 125.972,37.6442 134.639,39.4776 143.5,40.5C 142.263,41.2807 141.263,42.2807 140.5,43.5C 140.957,44.2975 141.624,44.6309 142.5,44.5C 142.194,47.3854 142.527,50.0521 143.5,52.5C 143.989,55.4665 145.155,58.1332 147,60.5C 153.108,67.2146 160.608,71.7146 169.5,74C 175.167,74.6667 180.833,74.6667 186.5,74C 195.332,73.2754 200.999,68.7754 203.5,60.5C 204.325,57.6282 205.159,54.6282 206,51.5C 206.383,50.944 206.883,50.6107 207.5,50.5C 212.43,63.2903 216.763,76.2903 220.5,89.5C 220.5,90.1667 220.5,90.8333 220.5,91.5C 219.167,91.5 217.833,91.5 216.5,91.5C 205.5,91.5 194.5,91.5 183.5,91.5C 164.52,90.6344 145.854,91.9678 127.5,95.5C 126.833,95.5 126.167,95.5 125.5,95.5C 116.826,95.0941 108.159,94.9274 99.5,95C 100.328,95.9147 101.328,96.5814 102.5,97C 97.2497,97.1929 92.083,97.6929 87,98.5C 86.3551,97.354 85.5217,96.354 84.5,95.5C 85.1662,94.1687 85.1662,92.6687 84.5,91C 85.7589,88.4729 86.7589,85.8062 87.5,83C 87.4148,81.8926 87.0814,80.8926 86.5,80C 88.0223,75.6614 88.6889,71.1614 88.5,66.5C 89.548,59.3084 91.3814,52.3084 94,45.5C 99.5403,29.1392 110.04,24.4725 125.5,31.5 Z"/></g>
<g><path style="opacity:1" fill="#0a153a" d="M 173.5,26.5 C 175.969,27.3171 178.635,27.8171 181.5,28C 173.864,30.2709 166.197,32.6042 158.5,35C 154.538,37.1399 151.204,39.9733 148.5,43.5C 146.379,43.3253 144.379,43.6586 142.5,44.5C 141.624,44.6309 140.957,44.2975 140.5,43.5C 141.263,42.2807 142.263,41.2807 143.5,40.5C 134.639,39.4776 125.972,37.6442 117.5,35C 114.167,34.3333 110.833,34.3333 107.5,35C 105.691,37.2379 103.358,38.4046 100.5,38.5C 100.393,36.0968 101.393,34.2635 103.5,33C 105.974,32.8871 107.974,31.8871 109.5,30C 114.72,30.6287 120.053,31.1287 125.5,31.5C 129.988,33.4076 134.654,34.7409 139.5,35.5C 150.719,32.0941 162.052,29.0941 173.5,26.5 Z"/></g>
<g><path style="opacity:1" fill="#050e2e" d="M 173.5,26.5 C 178.913,26.2288 184.246,26.7288 189.5,28C 193.275,29.6114 196.275,32.1114 198.5,35.5C 200.125,42.5939 197.459,46.4273 190.5,47C 178.807,47.6934 167.14,47.36 155.5,46C 152.896,45.6097 150.562,44.7763 148.5,43.5C 151.204,39.9733 154.538,37.1399 158.5,35C 166.197,32.6042 173.864,30.2709 181.5,28C 178.635,27.8171 175.969,27.3171 173.5,26.5 Z"/></g>
<g><path style="opacity:1" fill="#f3fcfe" d="M 57.5,148.5 C 59.099,148.232 60.4324,148.566 61.5,149.5C 61.1713,162.344 61.5046,175.011 62.5,187.5C 71.6822,187.827 80.6822,187.493 89.5,186.5C 91.2882,182.267 93.6215,178.267 96.5,174.5C 105.475,173.502 114.475,173.168 123.5,173.5C 123.5,177.167 123.5,180.833 123.5,184.5C 123.5,219.833 123.5,255.167 123.5,290.5C 118.5,290.5 113.5,290.5 108.5,290.5C 108.5,301.5 108.5,312.5 108.5,323.5C 136.48,325.492 164.814,326.158 193.5,325.5C 194.495,314.012 194.828,302.345 194.5,290.5C 189.833,290.5 185.167,290.5 180.5,290.5C 180.167,290.5 179.833,290.5 179.5,290.5C 179.5,251.833 179.5,213.167 179.5,174.5C 184.167,174.5 188.833,174.5 193.5,174.5C 193.33,175.822 193.663,176.989 194.5,178C 197.036,178.186 199.369,178.686 201.5,179.5C 195.833,179.5 190.167,179.5 184.5,179.5C 184.5,214.833 184.5,250.167 184.5,285.5C 189.5,285.5 194.5,285.5 199.5,285.5C 199.5,300.167 199.5,314.833 199.5,329.5C 199.5,330.167 199.167,330.5 198.5,330.5C 166.5,330.5 134.5,330.5 102.5,330.5C 102.5,329.5 102.5,328.5 102.5,327.5C 102.5,313.5 102.5,299.5 102.5,285.5C 107.032,285.818 111.366,285.485 115.5,284.5C 115.328,283.508 115.662,282.842 116.5,282.5C 117.825,264.472 117.825,245.138 116.5,224.5C 117.496,209.676 117.829,194.676 117.5,179.5C 111.824,179.334 106.157,179.501 100.5,180C 99.086,181.993 98.086,184.16 97.5,186.5C 95.3328,187.646 93.9995,189.479 93.5,192C 82.4537,192.188 71.4537,192.688 60.5,193.5C 59.2638,192.754 57.9305,192.421 56.5,192.5C 56.8168,188.298 56.4834,184.298 55.5,180.5C 55.5,177.833 55.5,175.167 55.5,172.5C 55.5,165.833 55.5,159.167 55.5,152.5C 54.5,152.5 53.5,152.5 52.5,152.5C 50.9812,151.59 49.3146,150.757 47.5,150C 50.7568,148.957 54.0901,148.457 57.5,148.5 Z"/></g>
<g><path style="opacity:1" fill="#213b90" d="M 65.5,184.5 C 73.0968,186.467 81.0968,187.134 89.5,186.5C 80.6822,187.493 71.6822,187.827 62.5,187.5C 63.1667,186.167 64.1667,185.167 65.5,184.5 Z"/></g>
<g><path style="opacity:1" fill="#09a5fc" d="M 151.5,292.5 C 150.5,292.833 149.833,293.5 149.5,294.5C 137.133,304.195 124.466,313.528 111.5,322.5C 110.609,323.11 109.609,323.443 108.5,323.5C 108.5,312.5 108.5,301.5 108.5,290.5C 113.5,290.5 118.5,290.5 123.5,290.5C 123.5,255.167 123.5,219.833 123.5,184.5C 131.544,178.79 138.21,171.79 143.5,163.5C 145.142,162.197 146.809,160.864 148.5,159.5C 149.458,159.047 150.292,158.381 151,157.5C 151.5,202.499 151.667,247.499 151.5,292.5 Z"/></g>
<g><path style="opacity:1" fill="#485aac" d="M 238.5,143.5 C 238.833,143.5 239.167,143.5 239.5,143.5C 239.5,158.167 239.5,172.833 239.5,187.5C 230.827,187.666 222.16,187.5 213.5,187C 212.944,186.617 212.611,186.117 212.5,185.5C 213.167,185.5 213.833,185.5 214.5,185.5C 222.316,186.492 230.316,186.826 238.5,186.5C 238.5,172.167 238.5,157.833 238.5,143.5 Z"/></g>
<g><path style="opacity:0.635" fill="#bdd9f7" d="M 55.5,180.5 C 56.4834,184.298 56.8168,188.298 56.5,192.5C 57.9305,192.421 59.2638,192.754 60.5,193.5C 71.4537,192.688 82.4537,192.188 93.5,192C 93.9995,189.479 95.3328,187.646 97.5,186.5C 96.5883,192.421 93.2549,195.421 87.5,195.5C 86.8333,195.5 86.1667,195.5 85.5,195.5C 76.3423,194.67 67.009,194.17 57.5,194C 56.5842,193.722 55.9175,193.222 55.5,192.5C 55.5,188.5 55.5,184.5 55.5,180.5 Z"/></g>
<g><path style="opacity:0.318" fill="#93bae8" d="M 116.5,224.5 C 116.5,209.833 116.5,195.167 116.5,180.5C 111.489,180.334 106.489,180.501 101.5,181C 100.512,183.167 99.1786,185 97.5,186.5C 98.086,184.16 99.086,181.993 100.5,180C 106.157,179.501 111.824,179.334 117.5,179.5C 117.829,194.676 117.496,209.676 116.5,224.5 Z"/></g>
<g><path style="opacity:0.392" fill="#9abef2" d="M 245.5,174.5 C 250.695,174.179 255.695,174.513 260.5,175.5C 255.833,175.5 251.167,175.5 246.5,175.5C 246.788,181.229 246.454,186.896 245.5,192.5C 244.975,193.192 244.308,193.692 243.5,194C 237.167,194.333 230.833,194.667 224.5,195C 226.758,195.876 228.758,197.043 230.5,198.5C 227.075,198.367 226.742,199.033 229.5,200.5C 226.188,199.516 222.855,198.516 219.5,197.5C 218.614,196.675 218.281,195.675 218.5,194.5C 216.5,194.5 214.5,194.5 212.5,194.5C 222.705,193.811 233.038,193.145 243.5,192.5C 244.167,186.346 244.833,180.346 245.5,174.5 Z"/></g>
<g><path style="opacity:1" fill="#c8dafe" d="M 178.5,173.5 C 188.015,173.173 197.348,173.506 206.5,174.5C 202.167,174.5 197.833,174.5 193.5,174.5C 188.833,174.5 184.167,174.5 179.5,174.5C 179.5,213.167 179.5,251.833 179.5,290.5C 179.167,290.5 178.833,290.5 178.5,290.5C 178.5,251.5 178.5,212.5 178.5,173.5 Z"/></g>
<g><path style="opacity:0.961" fill="#a6cef7" d="M 230.5,198.5 C 252.063,204.688 273.397,211.688 294.5,219.5C 295.583,220.365 295.749,221.365 295,222.5C 273.038,215.235 251.204,207.902 229.5,200.5C 226.742,199.033 227.075,198.367 230.5,198.5 Z"/></g>
<g><path style="opacity:0.459" fill="#a7cdf7" d="M 85.5,195.5 C 86.1667,195.5 86.8333,195.5 87.5,195.5C 87.5858,196.496 87.2524,197.329 86.5,198C 61.6683,206.248 36.835,214.414 12,222.5C 10.513,221.747 10.3463,220.914 11.5,220C 15.5,218.333 19.5,216.667 23.5,215C 44.0232,208.215 64.6899,201.715 85.5,195.5 Z"/></g>
<g><path style="opacity:0.624" fill="#a9d3f8" d="M 201.5,210.5 C 202.601,209.402 203.934,209.235 205.5,210C 229.131,225.974 252.464,242.307 275.5,259C 274.407,260.365 273.074,260.699 271.5,260C 247.76,244.096 224.426,227.596 201.5,210.5 Z"/></g>
<g><path style="opacity:0.608" fill="#a2d0f9" d="M 103.5,208.5 C 105.355,208.272 106.188,208.939 106,210.5C 82.798,227.36 59.298,243.86 35.5,260C 34.0563,260.781 32.723,260.614 31.5,259.5C 55.5181,242.475 79.5181,225.475 103.5,208.5 Z"/></g>
<g><path style="opacity:0.6" fill="#a1ccf6" d="M 116.5,224.5 C 117.825,245.138 117.825,264.472 116.5,282.5C 116.667,264.497 116.5,246.497 116,228.5C 99.9458,248.38 84.1125,268.38 68.5,288.5C 68.1667,288 67.8333,287.5 67.5,287C 81.6445,266.556 96.6445,246.723 112.5,227.5C 113.852,226.476 115.185,225.476 116.5,224.5 Z"/></g>
<g><path style="opacity:0.871" fill="#a9cff8" d="M 187.5,220.5 C 188.239,220.369 188.906,220.536 189.5,221C 207.015,241.852 224.182,263.019 241,284.5C 241.781,285.944 241.614,287.277 240.5,288.5C 222.431,267.267 204.931,245.601 188,223.5C 187.517,222.552 187.351,221.552 187.5,220.5 Z"/></g>
<g><path style="opacity:0.463" fill="#9ec2ea" d="M 201.5,179.5 C 202.906,179.973 203.573,180.973 203.5,182.5C 202.711,182.217 202.044,181.717 201.5,181C 196.177,180.501 190.844,180.334 185.5,180.5C 185.333,208.502 185.5,236.502 186,264.5C 187.37,270.981 189.203,277.314 191.5,283.5C 194.428,284.484 197.428,284.817 200.5,284.5C 200.5,299.5 200.5,314.5 200.5,329.5C 200.167,329.5 199.833,329.5 199.5,329.5C 199.5,314.833 199.5,300.167 199.5,285.5C 194.5,285.5 189.5,285.5 184.5,285.5C 184.5,250.167 184.5,214.833 184.5,179.5C 190.167,179.5 195.833,179.5 201.5,179.5 Z"/></g>
<g><path style="opacity:0.522" fill="#abc7f0" d="M 115.5,284.5 C 111.366,285.485 107.032,285.818 102.5,285.5C 102.5,299.5 102.5,313.5 102.5,327.5C 101.833,327.833 101.167,328.167 100.5,328.5C 100.216,313.798 100.55,299.131 101.5,284.5C 106.167,284.5 110.833,284.5 115.5,284.5 Z"/></g>
<g><path style="opacity:1" fill="#5e72b5" d="M 180.5,290.5 C 185.167,290.5 189.833,290.5 194.5,290.5C 194.828,302.345 194.495,314.012 193.5,325.5C 193.5,324.833 193.5,324.167 193.5,323.5C 193.5,312.833 193.5,302.167 193.5,291.5C 188.968,291.818 184.634,291.485 180.5,290.5 Z"/></g>
<g><path style="opacity:1" fill="#032fb3" d="M 149.5,294.5 C 147.189,297.147 144.856,299.814 142.5,302.5C 137.346,303.983 134.346,307.316 133.5,312.5C 130.073,312.588 127.74,314.255 126.5,317.5C 125.914,317.291 125.414,316.957 125,316.5C 123.174,318.074 121.007,318.907 118.5,319C 116.963,320.11 116.297,321.61 116.5,323.5C 141.833,323.5 167.167,323.5 192.5,323.5C 179.171,324.167 165.671,324.5 152,324.5C 138.15,324.499 124.65,323.833 111.5,322.5C 124.466,313.528 137.133,304.195 149.5,294.5 Z"/></g>
<g><path style="opacity:1" fill="#284091" d="M 111.5,322.5 C 124.65,323.833 138.15,324.499 152,324.5C 165.671,324.5 179.171,324.167 192.5,323.5C 192.833,323.5 193.167,323.5 193.5,323.5C 193.5,324.167 193.5,324.833 193.5,325.5C 164.814,326.158 136.48,325.492 108.5,323.5C 109.609,323.443 110.609,323.11 111.5,322.5 Z"/></g>
<g><path style="opacity:0.859" fill="#c4e7fe" d="M 102.5,327.5 C 102.5,328.5 102.5,329.5 102.5,330.5C 134.5,330.5 166.5,330.5 198.5,330.5C 166.671,331.498 134.671,331.832 102.5,331.5C 101.094,331.027 100.427,330.027 100.5,328.5C 101.167,328.167 101.833,327.833 102.5,327.5 Z"/></g>
<g><path style="opacity:0.141" fill="#77aae5" d="M 199.5,329.5 C 199.833,329.5 200.167,329.5 200.5,329.5C 200.586,330.496 200.252,331.329 199.5,332C 166.997,332.831 134.664,332.664 102.5,331.5C 134.671,331.832 166.671,331.498 198.5,330.5C 199.167,330.5 199.5,330.167 199.5,329.5 Z"/></g>
</svg>
