<?xml version="1.0" encoding="UTF-8"?>
<!DOCTYPE svg PUBLIC "-//W3C//DTD SVG 1.1//EN" "http://www.w3.org/Graphics/SVG/1.1/DTD/svg11.dtd">
<svg xmlns="http://www.w3.org/2000/svg" version="1.1" width="271px" height="423px" style="shape-rendering:geometricPrecision; text-rendering:geometricPrecision; image-rendering:optimizeQuality; fill-rule:evenodd; clip-rule:evenodd" xmlns:xlink="http://www.w3.org/1999/xlink">
<g><path style="opacity:0.58" fill="#aaabb6" d="M 88.5,2.5 C 88.0269,3.90632 87.0269,4.57298 85.5,4.5C 85.9731,3.09368 86.9731,2.42702 88.5,2.5 Z"/></g>
<g><path style="opacity:1" fill="#2f2e3d" d="M 123.5,10.5 C 125.214,11.7384 127.214,12.405 129.5,12.5C 132.167,11.8333 134.833,11.1667 137.5,10.5C 140.491,10.8337 142.824,9.83372 144.5,7.5C 146.124,7.36007 147.29,8.02674 148,9.5C 148.772,8.15095 149.939,7.31762 151.5,7C 151.167,6.66667 150.833,6.33333 150.5,6C 153.476,5.29523 156.142,4.12857 158.5,2.5C 164.653,1.3467 170.986,1.18003 177.5,2C 182.252,2.87459 186.252,5.04126 189.5,8.5C 189.738,10.4044 190.738,11.7377 192.5,12.5C 194.822,13.8021 196.155,15.8021 196.5,18.5C 196.5,18.8333 196.5,19.1667 196.5,19.5C 193.939,18.2404 191.272,16.2404 188.5,13.5C 185.714,11.8874 183.047,10.054 180.5,8C 172.18,6.03553 163.847,6.03553 155.5,8C 153,9.83333 150.5,11.6667 148,13.5C 147.632,12.09 146.799,11.09 145.5,10.5C 136.496,14.0696 126.829,16.0696 116.5,16.5C 112.565,14.5327 108.565,12.5327 104.5,10.5C 101.629,6.81822 97.7952,5.15155 93,5.5C 88.6136,6.49696 84.447,7.49696 80.5,8.5C 81.5387,6.46888 83.2054,5.13554 85.5,4.5C 87.0269,4.57298 88.0269,3.90632 88.5,2.5C 92.2439,0.847784 96.2439,0.347784 100.5,1C 108.7,3.11559 116.367,6.28226 123.5,10.5 Z"/></g>
<g><path style="opacity:0.909" fill="#676770" d="M 158.5,2.5 C 156.142,4.12857 153.476,5.29523 150.5,6C 150.833,6.33333 151.167,6.66667 151.5,7C 149.939,7.31762 148.772,8.15095 148,9.5C 147.29,8.02674 146.124,7.36007 144.5,7.5C 148.817,5.0595 153.483,3.39284 158.5,2.5 Z"/></g>
<g><path style="opacity:0.851" fill="#7c7c84" d="M 144.5,7.5 C 142.824,9.83372 140.491,10.8337 137.5,10.5C 139.509,8.93482 141.843,7.93482 144.5,7.5 Z"/></g>
<g><path style="opacity:0.573" fill="#afafb6" d="M 189.5,8.5 C 191.262,9.26231 192.262,10.5956 192.5,12.5C 190.738,11.7377 189.738,10.4044 189.5,8.5 Z"/></g>
<g><path style="opacity:0.027" fill="#d7d7da" d="M 123.5,10.5 C 125.898,10.2594 127.898,10.9261 129.5,12.5C 127.214,12.405 125.214,11.7384 123.5,10.5 Z"/></g>
<g><path style="opacity:0.996" fill="#605f67" d="M 80.5,8.5 C 78.9177,11.5837 76.9177,14.2504 74.5,16.5C 75.4101,12.9349 77.4101,10.2683 80.5,8.5 Z"/></g>
<g><path style="opacity:1" fill="#100f1c" d="M 104.5,10.5 C 106.408,15.3165 106.908,20.3165 106,25.5C 104.86,27.2792 103.693,28.9459 102.5,30.5C 99.7639,32.5543 97.4305,35.0543 95.5,38C 91.6735,40.08 88.0069,42.4134 84.5,45C 79.0168,47.8859 74.8502,46.7193 72,41.5C 71.4665,36.5799 70.9665,31.5799 70.5,26.5C 70.5,25.5 70.5,24.5 70.5,23.5C 70.3284,22.5084 70.6618,21.8417 71.5,21.5C 73.7593,20.656 74.7593,18.9893 74.5,16.5C 76.9177,14.2504 78.9177,11.5837 80.5,8.5C 84.447,7.49696 88.6136,6.49696 93,5.5C 97.7952,5.15155 101.629,6.81822 104.5,10.5 Z"/></g>
<g><path style="opacity:1" fill="#0f0f1c" d="M 188.5,13.5 C 188.387,16.0488 189.054,18.3821 190.5,20.5C 190.167,21.8333 189.833,23.1667 189.5,24.5C 187.898,23.45 187.065,24.1167 187,26.5C 186.667,25.8333 186.333,25.1667 186,24.5C 183.374,27.2308 180.207,29.0642 176.5,30C 177.293,31.0852 177.96,32.2519 178.5,33.5C 176.605,34.973 174.939,36.6397 173.5,38.5C 172.833,37.1667 172.167,35.8333 171.5,34.5C 170.019,35.4803 168.685,36.647 167.5,38C 165.866,38.4935 164.199,38.6602 162.5,38.5C 160.42,37.9556 158.42,37.1223 156.5,36C 151.354,29.5746 149.688,30.4079 151.5,38.5C 150.957,38.56 150.624,38.8933 150.5,39.5C 153.593,43.651 156.593,47.8176 159.5,52C 160.448,52.4828 161.448,52.6495 162.5,52.5C 162.238,53.9778 162.571,55.3112 163.5,56.5C 166.896,57.892 167.563,59.7254 165.5,62C 167.991,62.4094 169.991,63.5761 171.5,65.5C 172.167,65.1667 172.833,64.8333 173.5,64.5C 173.94,65.698 174.273,66.8647 174.5,68C 179.028,70.0648 183.695,71.7314 188.5,73C 181.89,74.6525 175.223,74.4859 168.5,72.5C 166.347,72.5613 165.014,73.5613 164.5,75.5C 157.471,75.3769 150.471,75.7103 143.5,76.5C 122.513,77.3587 101.513,77.692 80.5,77.5C 87.6115,76.0808 93.6115,74.5808 98.5,73C 96.5,72.6667 94.5,72.3333 92.5,72C 94.2205,71.2607 95.8872,70.4274 97.5,69.5C 107.116,60.7582 112.283,49.7582 113,36.5C 113.499,31.5111 113.666,26.5111 113.5,21.5C 114.552,21.6495 115.552,21.4828 116.5,21C 115.167,20.6667 113.833,20.3333 112.5,20C 113.337,18.9887 113.67,17.8221 113.5,16.5C 114.5,16.5 115.5,16.5 116.5,16.5C 126.829,16.0696 136.496,14.0696 145.5,10.5C 146.799,11.09 147.632,12.09 148,13.5C 150.5,11.6667 153,9.83333 155.5,8C 163.847,6.03553 172.18,6.03553 180.5,8C 183.047,10.054 185.714,11.8874 188.5,13.5 Z"/></g>
<g><path style="opacity:0.873" fill="#64626a" d="M 74.5,16.5 C 74.7593,18.9893 73.7593,20.656 71.5,21.5C 71.7497,19.326 72.7497,17.6594 74.5,16.5 Z"/></g>
<g><path style="opacity:0.051" fill="#d7d6dc" d="M 196.5,18.5 C 198.104,19.287 198.771,20.6203 198.5,22.5C 197.833,21.8333 197.167,21.1667 196.5,20.5C 196.5,20.1667 196.5,19.8333 196.5,19.5C 196.5,19.1667 196.5,18.8333 196.5,18.5 Z"/></g>
<g><path style="opacity:1" fill="#161623" d="M 188.5,13.5 C 191.272,16.2404 193.939,18.2404 196.5,19.5C 196.5,19.8333 196.5,20.1667 196.5,20.5C 199.102,45.274 188.768,52.274 165.5,41.5C 164.452,40.452 163.452,39.452 162.5,38.5C 164.199,38.6602 165.866,38.4935 167.5,38C 168.685,36.647 170.019,35.4803 171.5,34.5C 172.167,35.8333 172.833,37.1667 173.5,38.5C 174.939,36.6397 176.605,34.973 178.5,33.5C 177.96,32.2519 177.293,31.0852 176.5,30C 180.207,29.0642 183.374,27.2308 186,24.5C 186.333,25.1667 186.667,25.8333 187,26.5C 187.065,24.1167 187.898,23.45 189.5,24.5C 189.833,23.1667 190.167,21.8333 190.5,20.5C 189.054,18.3821 188.387,16.0488 188.5,13.5 Z"/></g>
<g><path style="opacity:0.02" fill="#f3f3f4" d="M 70.5,23.5 C 70.5,24.5 70.5,25.5 70.5,26.5C 69.8333,27.1667 69.1667,27.8333 68.5,28.5C 68.4021,26.4471 69.0687,24.7804 70.5,23.5 Z"/></g>
<g><path style="opacity:0.663" fill="#8c8c90" d="M 68.5,30.5 C 68.2766,34.1621 67.2766,37.4954 65.5,40.5C 65.5902,36.7858 66.5902,33.4525 68.5,30.5 Z"/></g>
<g><path style="opacity:0.553" fill="#aba9ae" d="M 201.5,30.5 C 202.612,32.5994 203.279,34.9327 203.5,37.5C 201.837,35.5615 201.171,33.2282 201.5,30.5 Z"/></g>
<g><path style="opacity:1" fill="#222332" d="M 70.5,26.5 C 70.9665,31.5799 71.4665,36.5799 72,41.5C 74.8502,46.7193 79.0168,47.8859 84.5,45C 88.0069,42.4134 91.6735,40.08 95.5,38C 97.4305,35.0543 99.7639,32.5543 102.5,30.5C 103.423,29.6971 104.423,29.5304 105.5,30C 104.359,30.7412 104.359,31.5745 105.5,32.5C 104.319,37.6392 102.319,42.3058 99.5,46.5C 95.109,46.5304 92.4423,48.6971 91.5,53C 89.9751,54.0086 88.3084,54.5086 86.5,54.5C 86.5,55.5 86.5,56.5 86.5,57.5C 83.5971,58.5399 80.7638,59.8733 78,61.5C 77.0497,60.9777 76.2164,60.311 75.5,59.5C 73.0466,62.1563 70.2133,62.823 67,61.5C 66.4309,57.6395 65.5976,57.6395 64.5,61.5C 63.5832,60.8728 62.5832,60.5394 61.5,60.5C 61.5,60.1667 61.5,59.8333 61.5,59.5C 62.0872,52.8912 63.4205,46.5579 65.5,40.5C 67.2766,37.4954 68.2766,34.1621 68.5,30.5C 68.5,29.8333 68.5,29.1667 68.5,28.5C 69.1667,27.8333 69.8333,27.1667 70.5,26.5 Z"/></g>
<g><path style="opacity:1" fill="#242433" d="M 196.5,20.5 C 197.167,21.1667 197.833,21.8333 198.5,22.5C 199.892,25.0067 200.892,27.6733 201.5,30.5C 201.171,33.2282 201.837,35.5615 203.5,37.5C 204.675,41.0424 205.341,44.7091 205.5,48.5C 205.565,51.4282 206.232,54.0948 207.5,56.5C 207.565,59.4282 208.232,62.0948 209.5,64.5C 210.341,66.3792 210.675,68.3792 210.5,70.5C 209.732,69.7375 209.232,68.7375 209,67.5C 208.667,68.1667 208.333,68.8333 208,69.5C 207.654,67.7818 207.154,66.1151 206.5,64.5C 206.709,63.914 207.043,63.414 207.5,63C 206.167,60.6667 204.833,58.3333 203.5,56C 189.666,59.5446 176.666,57.5446 164.5,50C 159.605,46.5923 155.272,42.7589 151.5,38.5C 149.688,30.4079 151.354,29.5746 156.5,36C 158.42,37.1223 160.42,37.9556 162.5,38.5C 163.452,39.452 164.452,40.452 165.5,41.5C 188.768,52.274 199.102,45.274 196.5,20.5 Z"/></g>
<g><path style="opacity:0.533" fill="#9c9ca2" d="M 205.5,48.5 C 207.04,50.8383 207.706,53.5049 207.5,56.5C 206.232,54.0948 205.565,51.4282 205.5,48.5 Z"/></g>
<g><path style="opacity:1" fill="#161a27" d="M 151.5,38.5 C 155.272,42.7589 159.605,46.5923 164.5,50C 176.666,57.5446 189.666,59.5446 203.5,56C 204.833,58.3333 206.167,60.6667 207.5,63C 207.043,63.414 206.709,63.914 206.5,64.5C 207.154,66.1151 207.654,67.7818 208,69.5C 208.333,68.8333 208.667,68.1667 209,67.5C 209.232,68.7375 209.732,69.7375 210.5,70.5C 210.5,70.8333 210.5,71.1667 210.5,71.5C 210.5,72.8333 210.5,74.1667 210.5,75.5C 211.5,75.5 212.5,75.5 213.5,75.5C 213.5,76.5 213.5,77.5 213.5,78.5C 213.271,83.0097 213.938,87.3431 215.5,91.5C 215.062,91.4346 214.728,91.6012 214.5,92C 215.117,94.277 215.784,96.4437 216.5,98.5C 214.152,100.097 211.486,101.097 208.5,101.5C 205.038,101.06 201.371,101.06 197.5,101.5C 196.156,92.7188 194.489,84.0521 192.5,75.5C 183.167,75.5 173.833,75.5 164.5,75.5C 165.014,73.5613 166.347,72.5613 168.5,72.5C 175.223,74.4859 181.89,74.6525 188.5,73C 183.695,71.7314 179.028,70.0648 174.5,68C 174.273,66.8647 173.94,65.698 173.5,64.5C 172.833,64.8333 172.167,65.1667 171.5,65.5C 169.991,63.5761 167.991,62.4094 165.5,62C 167.563,59.7254 166.896,57.892 163.5,56.5C 162.571,55.3112 162.238,53.9778 162.5,52.5C 161.448,52.6495 160.448,52.4828 159.5,52C 156.593,47.8176 153.593,43.651 150.5,39.5C 150.624,38.8933 150.957,38.56 151.5,38.5 Z"/></g>
<g><path style="opacity:1" fill="#171825" d="M 104.5,10.5 C 108.565,12.5327 112.565,14.5327 116.5,16.5C 115.5,16.5 114.5,16.5 113.5,16.5C 113.67,17.8221 113.337,18.9887 112.5,20C 113.833,20.3333 115.167,20.6667 116.5,21C 115.552,21.4828 114.552,21.6495 113.5,21.5C 113.666,26.5111 113.499,31.5111 113,36.5C 112.283,49.7582 107.116,60.7582 97.5,69.5C 95.8872,70.4274 94.2205,71.2607 92.5,72C 94.5,72.3333 96.5,72.6667 98.5,73C 93.6115,74.5808 87.6115,76.0808 80.5,77.5C 79.1667,77.5 77.8333,77.5 76.5,77.5C 71.3921,77.5699 66.3921,76.9033 61.5,75.5C 60.52,72.9135 60.1866,70.2469 60.5,67.5C 60.6741,65.139 61.0074,62.8056 61.5,60.5C 62.5832,60.5394 63.5832,60.8728 64.5,61.5C 65.5976,57.6395 66.4309,57.6395 67,61.5C 70.2133,62.823 73.0466,62.1563 75.5,59.5C 76.2164,60.311 77.0497,60.9777 78,61.5C 80.7638,59.8733 83.5971,58.5399 86.5,57.5C 86.5,56.5 86.5,55.5 86.5,54.5C 88.3084,54.5086 89.9751,54.0086 91.5,53C 92.4423,48.6971 95.109,46.5304 99.5,46.5C 102.319,42.3058 104.319,37.6392 105.5,32.5C 104.359,31.5745 104.359,30.7412 105.5,30C 104.423,29.5304 103.423,29.6971 102.5,30.5C 103.693,28.9459 104.86,27.2792 106,25.5C 106.908,20.3165 106.408,15.3165 104.5,10.5 Z"/></g>
<g><path style="opacity:0.431" fill="#bfbfc3" d="M 207.5,56.5 C 209.04,58.8383 209.706,61.5049 209.5,64.5C 208.232,62.0948 207.565,59.4282 207.5,56.5 Z"/></g>
<g><path style="opacity:0.388" fill="#9b9a9f" d="M 61.5,59.5 C 61.5,59.8333 61.5,60.1667 61.5,60.5C 61.0074,62.8056 60.6741,65.139 60.5,67.5C 60.1667,67.5 59.8333,67.5 59.5,67.5C 59.2938,64.5049 59.9605,61.8383 61.5,59.5 Z"/></g>
<g><path style="opacity:0.451" fill="#c3c6c7" d="M 58.5,72.5 C 58.7148,74.1788 58.0481,75.1788 56.5,75.5C 56.9321,74.2905 57.5987,73.2905 58.5,72.5 Z"/></g>
<g><path style="opacity:0.314" fill="#c8c9d0" d="M 210.5,71.5 C 211.341,72.9264 212.341,74.2597 213.5,75.5C 212.5,75.5 211.5,75.5 210.5,75.5C 210.5,74.1667 210.5,72.8333 210.5,71.5 Z"/></g>
<g><path style="opacity:1" fill="#1d2e3c" d="M 164.5,75.5 C 173.833,75.5 183.167,75.5 192.5,75.5C 194.489,84.0521 196.156,92.7188 197.5,101.5C 185.686,102.967 173.686,103.967 161.5,104.5C 154.426,104.839 147.426,104.339 140.5,103C 141.578,102.326 142.245,101.326 142.5,100C 140.722,92.6218 140.056,85.1218 140.5,77.5C 141.791,77.7373 142.791,77.404 143.5,76.5C 150.471,75.7103 157.471,75.3769 164.5,75.5 Z"/></g>
<g><path style="opacity:1" fill="#1c2b39" d="M 210.5,75.5 C 212.065,79.982 211.731,84.3153 209.5,88.5C 206.807,90.2702 203.807,90.9368 200.5,90.5C 200.663,92.8568 200.497,95.1902 200,97.5C 197.546,90.3533 196.046,83.02 195.5,75.5C 200.593,75.148 205.593,75.148 210.5,75.5 Z"/></g>
<g><path style="opacity:1" fill="#253442" d="M 59.5,67.5 C 59.8333,67.5 60.1667,67.5 60.5,67.5C 60.1866,70.2469 60.52,72.9135 61.5,75.5C 66.3921,76.9033 71.3921,77.5699 76.5,77.5C 86.6585,78.3303 96.9919,78.8303 107.5,79C 107.167,79.3333 106.833,79.6667 106.5,80C 108.107,81.049 108.773,82.549 108.5,84.5C 107.325,84.281 106.325,84.6143 105.5,85.5C 107.43,89.7271 108.43,94.2271 108.5,99C 108.312,101.451 107.479,103.618 106,105.5C 98.1574,105.243 89.6574,105.076 80.5,105C 76.5714,103.362 72.5714,103.195 68.5,104.5C 63.7984,104.05 59.1317,103.383 54.5,102.5C 54.5,99.8333 54.5,97.1667 54.5,94.5C 42.5229,93.6341 30.5229,93.3008 18.5,93.5C 30.3529,92.2408 42.3529,92.2408 54.5,93.5C 55.0354,87.4789 55.702,81.4789 56.5,75.5C 58.0481,75.1788 58.7148,74.1788 58.5,72.5C 58.366,70.7085 58.6993,69.0418 59.5,67.5 Z"/></g>
<g><path style="opacity:1" fill="#162633" d="M 143.5,76.5 C 142.791,77.404 141.791,77.7373 140.5,77.5C 140.056,85.1218 140.722,92.6218 142.5,100C 142.245,101.326 141.578,102.326 140.5,103C 147.426,104.339 154.426,104.839 161.5,104.5C 144.022,105.948 126.355,106.615 108.5,106.5C 97.8333,106.333 87.1667,106.167 76.5,106C 73.6353,105.817 70.9686,105.317 68.5,104.5C 72.5714,103.195 76.5714,103.362 80.5,105C 89.6574,105.076 98.1574,105.243 106,105.5C 107.479,103.618 108.312,101.451 108.5,99C 108.43,94.2271 107.43,89.7271 105.5,85.5C 106.325,84.6143 107.325,84.281 108.5,84.5C 108.773,82.549 108.107,81.049 106.5,80C 106.833,79.6667 107.167,79.3333 107.5,79C 96.9919,78.8303 86.6585,78.3303 76.5,77.5C 77.8333,77.5 79.1667,77.5 80.5,77.5C 101.513,77.692 122.513,77.3587 143.5,76.5 Z"/></g>
<g><path style="opacity:0.435" fill="#cdcdd0" d="M 263.5,86.5 C 257.167,86.5 250.833,86.5 244.5,86.5C 250.86,84.1581 257.193,84.1581 263.5,86.5 Z"/></g>
<g><path style="opacity:0.325" fill="#a3a5ac" d="M 244.5,86.5 C 240.361,87.5629 236.028,88.2296 231.5,88.5C 235.545,86.8227 239.878,86.1561 244.5,86.5 Z"/></g>
<g><path style="opacity:0.034" fill="#efeff0" d="M 263.5,86.5 C 267.191,87.3362 268.191,89.3362 266.5,92.5C 266.737,91.209 266.404,90.209 265.5,89.5C 264.833,88.5 264.167,87.5 263.5,86.5 Z"/></g>
<g><path style="opacity:0.451" fill="#a4a9af" d="M 213.5,78.5 C 214.925,81.9032 215.758,85.5698 216,89.5C 216.671,90.2524 217.504,90.5858 218.5,90.5C 217.791,91.404 216.791,91.7373 215.5,91.5C 213.938,87.3431 213.271,83.0097 213.5,78.5 Z"/></g>
<g><path style="opacity:1" fill="#0e131f" d="M 244.5,86.5 C 250.833,86.5 257.167,86.5 263.5,86.5C 264.167,87.5 264.833,88.5 265.5,89.5C 265.631,90.2389 265.464,90.9056 265,91.5C 259.584,90.3611 254.084,90.1944 248.5,91C 237.738,93.1909 227.071,95.6909 216.5,98.5C 215.784,96.4437 215.117,94.277 214.5,92C 214.728,91.6012 215.062,91.4346 215.5,91.5C 216.791,91.7373 217.791,91.404 218.5,90.5C 222.591,89.1045 226.924,88.4379 231.5,88.5C 236.028,88.2296 240.361,87.5629 244.5,86.5 Z"/></g>
<g><path style="opacity:1" fill="#090f1d" d="M 18.5,93.5 C 30.5229,93.3008 42.5229,93.6341 54.5,94.5C 54.5,97.1667 54.5,99.8333 54.5,102.5C 59.1317,103.383 63.7984,104.05 68.5,104.5C 70.9686,105.317 73.6353,105.817 76.5,106C 87.1667,106.167 97.8333,106.333 108.5,106.5C 126.355,106.615 144.022,105.948 161.5,104.5C 173.686,103.967 185.686,102.967 197.5,101.5C 201.371,101.06 205.038,101.06 208.5,101.5C 203.299,103.567 197.966,105.233 192.5,106.5C 189.557,106.353 186.724,105.687 184,104.5C 148.329,109.212 112.496,110.712 76.5,109C 68.339,107.035 60.1724,105.202 52,103.5C 42.3192,105.559 33.1526,108.892 24.5,113.5C 15.3721,110.692 11.3721,105.192 12.5,97C 13.756,96.5831 14.4226,95.7498 14.5,94.5C 15.5676,93.5655 16.901,93.2322 18.5,93.5 Z"/></g>
<g><path style="opacity:0.054" fill="#f2f2f4" d="M 4.5,100.5 C 4.5751,103.206 4.90843,105.873 5.5,108.5C 3.41623,106.007 3.0829,103.34 4.5,100.5 Z"/></g>
<g><path style="opacity:0.041" fill="#e2e3e4" d="M 256.5,100.5 C 255.713,102.104 254.38,102.771 252.5,102.5C 253.514,101.326 254.847,100.66 256.5,100.5 Z"/></g>
<g><path style="opacity:1" fill="#010000" d="M 238.5,108.5 C 249.796,112.387 255.796,120.387 256.5,132.5C 256.99,200.891 256.49,269.225 255,337.5C 252.588,341.916 249.422,345.749 245.5,349C 211.976,366.098 178.643,383.765 145.5,402C 138.98,404.981 132.313,405.314 125.5,403C 89.8223,384.29 54.489,365.123 19.5,345.5C 15.7715,341.941 13.6048,337.607 13,332.5C 12.5,300.502 12.3334,268.502 12.5,236.5C 12.3333,201.498 12.5,166.498 13,131.5C 14.2911,126.92 16.1245,122.587 18.5,118.5C 26.3295,122.42 34.3295,125.753 42.5,128.5C 42.5,144.167 42.5,159.833 42.5,175.5C 52.8333,175.5 63.1667,175.5 73.5,175.5C 73.5,172.5 73.5,169.5 73.5,166.5C 74.4884,165.205 75.4884,163.872 76.5,162.5C 78.7128,162.152 80.7128,161.319 82.5,160C 91.1603,159.5 99.8269,159.334 108.5,159.5C 108.812,212.852 108.478,266.186 107.5,319.5C 106.328,321.539 104.662,322.872 102.5,323.5C 101.509,330.313 101.175,337.313 101.5,344.5C 123.5,344.5 145.5,344.5 167.5,344.5C 167.825,337.313 167.491,330.313 166.5,323.5C 163.825,322.897 161.492,321.564 159.5,319.5C 158.509,265.875 158.175,212.209 158.5,158.5C 168.681,158.173 178.681,158.506 188.5,159.5C 194.061,162.956 196.728,167.956 196.5,174.5C 206.319,175.494 216.319,175.827 226.5,175.5C 226.5,157.5 226.5,139.5 226.5,121.5C 226.719,120.325 226.386,119.325 225.5,118.5C 214.433,119.401 203.1,119.735 191.5,119.5C 198.691,117.211 206.025,115.044 213.5,113C 221.814,111.318 230.147,109.818 238.5,108.5 Z"/></g>
<g><path style="opacity:0.416" fill="#acacac" d="M 257.5,108.5 C 258.906,108.973 259.573,109.973 259.5,111.5C 258.094,111.027 257.427,110.027 257.5,108.5 Z"/></g>
<g><path style="opacity:1" fill="#222533" d="M 265.5,89.5 C 266.404,90.209 266.737,91.209 266.5,92.5C 264.107,96.2142 260.774,98.8809 256.5,100.5C 254.847,100.66 253.514,101.326 252.5,102.5C 252.167,102.5 251.833,102.5 251.5,102.5C 251.167,102.5 250.833,102.5 250.5,102.5C 250.631,101.624 250.298,100.957 249.5,100.5C 217.934,109.598 185.934,117.098 153.5,123C 144.434,123.692 135.434,124.859 126.5,126.5C 120.211,126.007 113.878,126.007 107.5,126.5C 98.5,125.833 89.5,125.167 80.5,124.5C 119.329,126.594 156.663,120.594 192.5,106.5C 197.966,105.233 203.299,103.567 208.5,101.5C 211.486,101.097 214.152,100.097 216.5,98.5C 227.071,95.6909 237.738,93.1909 248.5,91C 254.084,90.1944 259.584,90.3611 265,91.5C 265.464,90.9056 265.631,90.2389 265.5,89.5 Z"/></g>
<g><path style="opacity:1" fill="#181a27" d="M 192.5,106.5 C 156.663,120.594 119.329,126.594 80.5,124.5C 63.467,124.393 46.8003,121.893 30.5,117C 28.2726,116.059 26.2726,114.892 24.5,113.5C 33.1526,108.892 42.3192,105.559 52,103.5C 60.1724,105.202 68.339,107.035 76.5,109C 112.496,110.712 148.329,109.212 184,104.5C 186.724,105.687 189.557,106.353 192.5,106.5 Z"/></g>
<g><path style="opacity:1" fill="#2f3241" d="M 14.5,94.5 C 14.4226,95.7498 13.756,96.5831 12.5,97C 11.3721,105.192 15.3721,110.692 24.5,113.5C 26.2726,114.892 28.2726,116.059 30.5,117C 46.8003,121.893 63.467,124.393 80.5,124.5C 89.5,125.167 98.5,125.833 107.5,126.5C 79.0463,127.408 51.0463,124.575 23.5,118C 19.3908,116.446 15.3908,114.613 11.5,112.5C 10.8933,112.624 10.56,112.957 10.5,113.5C 9.56366,114.974 8.23033,115.974 6.5,116.5C 6.70311,114.956 7.36977,113.622 8.5,112.5C 7.47565,111.148 6.47565,109.815 5.5,108.5C 4.90843,105.873 4.5751,103.206 4.5,100.5C 4.51056,98.9826 5.17723,97.8159 6.5,97C 9.09638,95.8644 11.763,95.031 14.5,94.5 Z"/></g>
<g><path style="opacity:1" fill="#2a2a2a" d="M 250.5,102.5 C 250.833,102.5 251.167,102.5 251.5,102.5C 253.806,104.139 255.806,106.139 257.5,108.5C 257.427,110.027 258.094,111.027 259.5,111.5C 262.166,113.489 263.833,116.156 264.5,119.5C 265.796,124.062 266.462,128.729 266.5,133.5C 265.23,152.322 264.396,171.322 264,190.5C 263.667,188.5 263.333,186.5 263,184.5C 262.667,190.833 262.333,197.167 262,203.5C 261.667,200.5 261.333,197.5 261,194.5C 260.667,194.833 260.333,195.167 260,195.5C 259.667,193.833 259.333,192.167 259,190.5C 258.013,193.697 258.513,196.53 260.5,199C 260,199.5 259.5,200 259,200.5C 258.667,204.167 258.333,207.833 258,211.5C 257.832,184.997 257.332,158.663 256.5,132.5C 255.796,120.387 249.796,112.387 238.5,108.5C 242.648,107.074 246.648,105.074 250.5,102.5 Z"/></g>
<g><path style="opacity:1" fill="#1a0204" d="M 226.5,121.5 C 209.991,121.17 193.658,121.504 177.5,122.5C 174.772,122.171 172.438,122.837 170.5,124.5C 168.833,124.5 167.167,124.5 165.5,124.5C 163.139,124.674 160.806,125.007 158.5,125.5C 164.493,124.142 170.493,122.309 176.5,120C 181.489,119.501 186.489,119.334 191.5,119.5C 203.1,119.735 214.433,119.401 225.5,118.5C 226.386,119.325 226.719,120.325 226.5,121.5 Z"/></g>
<g><path style="opacity:1" fill="#15131f" d="M 250.5,102.5 C 246.648,105.074 242.648,107.074 238.5,108.5C 230.147,109.818 221.814,111.318 213.5,113C 206.025,115.044 198.691,117.211 191.5,119.5C 186.489,119.334 181.489,119.501 176.5,120C 170.493,122.309 164.493,124.142 158.5,125.5C 155.239,126.378 151.906,127.044 148.5,127.5C 139.789,127.858 131.123,127.858 122.5,127.5C 120.394,128.43 118.394,129.596 116.5,131C 97.8229,131.67 79.1563,131.503 60.5,130.5C 54.4698,130.044 48.4698,129.377 42.5,128.5C 34.3295,125.753 26.3295,122.42 18.5,118.5C 15.8333,116.833 13.1667,115.167 10.5,113.5C 10.56,112.957 10.8933,112.624 11.5,112.5C 15.3908,114.613 19.3908,116.446 23.5,118C 51.0463,124.575 79.0463,127.408 107.5,126.5C 113.878,126.007 120.211,126.007 126.5,126.5C 135.434,124.859 144.434,123.692 153.5,123C 185.934,117.098 217.934,109.598 249.5,100.5C 250.298,100.957 250.631,101.624 250.5,102.5 Z"/></g>
<g><path style="opacity:1" fill="#840d14" d="M 165.5,124.5 C 160.53,127.804 154.864,129.137 148.5,128.5C 148.5,128.167 148.5,127.833 148.5,127.5C 151.906,127.044 155.239,126.378 158.5,125.5C 160.806,125.007 163.139,124.674 165.5,124.5 Z"/></g>
<g><path style="opacity:1" fill="#aa0101" d="M 165.5,124.5 C 167.167,124.5 168.833,124.5 170.5,124.5C 167.942,126.524 164.942,127.691 161.5,128C 163.81,128.497 166.143,128.663 168.5,128.5C 168.5,129.833 168.5,131.167 168.5,132.5C 171.049,132.559 173.049,131.559 174.5,129.5C 178.712,131.722 178.379,132.889 173.5,133C 174.833,133.333 176.167,133.667 177.5,134C 165.449,138.067 153.115,139.567 140.5,138.5C 141.391,139.59 142.391,139.59 143.5,138.5C 144.711,139.274 144.711,140.107 143.5,141C 137.782,141.211 132.115,141.711 126.5,142.5C 125.692,142.192 125.025,141.692 124.5,141C 115.603,140.791 106.769,139.957 98,138.5C 90.0659,139.655 82.2326,140.988 74.5,142.5C 72.0671,140.601 69.4004,139.101 66.5,138C 58.5459,139.647 51.8792,137.481 46.5,131.5C 45.5713,132.689 45.238,134.022 45.5,135.5C 44.8333,135.5 44.1667,135.5 43.5,135.5C 43.2865,133.856 43.6198,132.356 44.5,131C 49.8612,130.947 55.1945,131.447 60.5,132.5C 64.6195,133.738 68.9528,134.571 73.5,135C 98.628,136.078 123.628,134.911 148.5,131.5C 148.5,130.5 148.5,129.5 148.5,128.5C 154.864,129.137 160.53,127.804 165.5,124.5 Z"/></g>
<g><path style="opacity:1" fill="#ef0001" d="M 223.5,125.5 C 221.436,140.368 220.936,155.368 222,170.5C 223.039,171.244 223.539,172.244 223.5,173.5C 214.833,173.5 206.167,173.5 197.5,173.5C 199.92,165.074 196.92,160.407 188.5,159.5C 178.681,158.506 168.681,158.173 158.5,158.5C 158.167,158.5 157.833,158.5 157.5,158.5C 156.603,157.402 155.77,157.402 155,158.5C 154.5,184.165 154.333,209.831 154.5,235.5C 153.717,238.776 152.717,242.109 151.5,245.5C 150.238,242.885 149.072,240.218 148,237.5C 146.478,239.741 145.145,242.074 144,244.5C 143.02,242.941 142.187,241.274 141.5,239.5C 140.713,240.242 140.047,241.075 139.5,242C 134.833,242.333 130.167,242.667 125.5,243C 123.556,246.159 122.39,245.659 122,241.5C 120.89,239.963 119.39,239.297 117.5,239.5C 117.162,241.854 116.662,244.187 116,246.5C 115.821,242.975 115.321,239.641 114.5,236.5C 114.5,210.167 114.5,183.833 114.5,157.5C 103.654,157.172 92.9869,157.506 82.5,158.5C 79.8021,158.845 77.8021,160.178 76.5,162.5C 73.7081,162.452 71.8747,163.785 71,166.5C 70.7508,165.376 70.2508,164.376 69.5,163.5C 68.8333,165.5 68.1667,167.5 67.5,169.5C 66.5224,169.023 65.6891,168.357 65,167.5C 64.7837,165.616 64.117,163.949 63,162.5C 62.8253,165.157 62.9919,167.824 63.5,170.5C 61.3393,170.174 59.5059,169.174 58,167.5C 55.8092,168.214 53.4759,168.547 51,168.5C 48.7877,159.652 47.9544,150.652 48.5,141.5C 52.0021,141.389 55.0021,142.556 57.5,145C 72.0738,147.026 86.7404,147.86 101.5,147.5C 120.389,148.916 138.723,146.916 156.5,141.5C 156.5,141.167 156.5,140.833 156.5,140.5C 176.609,140.135 195.942,136.302 214.5,129C 212.606,127.921 212.273,126.587 213.5,125C 216.924,124.253 220.257,124.42 223.5,125.5 Z"/></g>
<g><path style="opacity:1" fill="#260810" d="M 148.5,127.5 C 148.5,127.833 148.5,128.167 148.5,128.5C 143.167,129.167 137.833,129.833 132.5,130.5C 113.887,132.255 95.2207,132.922 76.5,132.5C 73.8333,132.5 71.1667,132.5 68.5,132.5C 65.8333,131.833 63.1667,131.167 60.5,130.5C 79.1563,131.503 97.8229,131.67 116.5,131C 118.394,129.596 120.394,128.43 122.5,127.5C 131.123,127.858 139.789,127.858 148.5,127.5 Z"/></g>
<g><path style="opacity:1" fill="#5a0209" d="M 132.5,130.5 C 128.124,132.138 123.458,132.971 118.5,133C 104.327,133.827 90.3272,133.661 76.5,132.5C 95.2207,132.922 113.887,132.255 132.5,130.5 Z"/></g>
<g><path style="opacity:1" fill="#970508" d="M 148.5,128.5 C 148.5,129.5 148.5,130.5 148.5,131.5C 123.628,134.911 98.628,136.078 73.5,135C 68.9528,134.571 64.6195,133.738 60.5,132.5C 63.1667,132.5 65.8333,132.5 68.5,132.5C 71.1667,132.5 73.8333,132.5 76.5,132.5C 90.3272,133.661 104.327,133.827 118.5,133C 123.458,132.971 128.124,132.138 132.5,130.5C 137.833,129.833 143.167,129.167 148.5,128.5 Z"/></g>
<g><path style="opacity:1" fill="#e00303" d="M 223.5,123.5 C 223.5,124.167 223.5,124.833 223.5,125.5C 220.257,124.42 216.924,124.253 213.5,125C 212.273,126.587 212.606,127.921 214.5,129C 195.942,136.302 176.609,140.135 156.5,140.5C 168.912,137.404 181.579,134.904 194.5,133C 197.732,131.534 201.065,130.367 204.5,129.5C 203.624,128.749 202.624,128.249 201.5,128C 197.167,127.667 192.833,127.333 188.5,127C 186.22,126.767 184.22,125.934 182.5,124.5C 196.15,123.501 209.817,123.167 223.5,123.5 Z"/></g>
<g><path style="opacity:1" fill="#b70101" d="M 177.5,122.5 C 193.675,122.17 209.675,122.504 225.5,123.5C 224.833,123.5 224.167,123.5 223.5,123.5C 209.817,123.167 196.15,123.501 182.5,124.5C 184.22,125.934 186.22,126.767 188.5,127C 192.833,127.333 197.167,127.667 201.5,128C 202.624,128.249 203.624,128.749 204.5,129.5C 201.065,130.367 197.732,131.534 194.5,133C 181.579,134.904 168.912,137.404 156.5,140.5C 156.5,140.833 156.5,141.167 156.5,141.5C 147.178,141.513 138.178,143.013 129.5,146C 111.824,146.833 94.1572,146.666 76.5,145.5C 66.3502,143.884 56.6836,141.217 47.5,137.5C 46.5,137.167 45.8333,136.5 45.5,135.5C 45.238,134.022 45.5713,132.689 46.5,131.5C 51.8792,137.481 58.5459,139.647 66.5,138C 69.4004,139.101 72.0671,140.601 74.5,142.5C 82.2326,140.988 90.0659,139.655 98,138.5C 106.769,139.957 115.603,140.791 124.5,141C 125.025,141.692 125.692,142.192 126.5,142.5C 132.115,141.711 137.782,141.211 143.5,141C 144.711,140.107 144.711,139.274 143.5,138.5C 142.391,139.59 141.391,139.59 140.5,138.5C 153.115,139.567 165.449,138.067 177.5,134C 176.167,133.667 174.833,133.333 173.5,133C 178.379,132.889 178.712,131.722 174.5,129.5C 173.049,131.559 171.049,132.559 168.5,132.5C 168.5,131.167 168.5,129.833 168.5,128.5C 166.143,128.663 163.81,128.497 161.5,128C 164.942,127.691 167.942,126.524 170.5,124.5C 172.438,122.837 174.772,122.171 177.5,122.5 Z"/></g>
<g><path style="opacity:1" fill="#f92d2f" d="M 223.5,123.5 C 224.167,123.5 224.833,123.5 225.5,123.5C 225.83,140.675 225.497,157.675 224.5,174.5C 224.5,173.833 224.167,173.5 223.5,173.5C 223.539,172.244 223.039,171.244 222,170.5C 220.936,155.368 221.436,140.368 223.5,125.5C 223.5,124.833 223.5,124.167 223.5,123.5 Z"/></g>
<g><path style="opacity:1" fill="#f53337" d="M 43.5,135.5 C 44.1667,135.5 44.8333,135.5 45.5,135.5C 45.8333,136.5 46.5,137.167 47.5,137.5C 47.6665,148.505 47.4998,159.505 47,170.5C 45.955,171.373 45.1217,172.373 44.5,173.5C 43.5046,161.011 43.1713,148.344 43.5,135.5 Z"/></g>
<g><path style="opacity:1" fill="#7d1115" d="M 42.5,128.5 C 48.4698,129.377 54.4698,130.044 60.5,130.5C 63.1667,131.167 65.8333,131.833 68.5,132.5C 65.8333,132.5 63.1667,132.5 60.5,132.5C 55.1945,131.447 49.8612,130.947 44.5,131C 43.6198,132.356 43.2865,133.856 43.5,135.5C 43.1713,148.344 43.5046,161.011 44.5,173.5C 53.6517,174.494 62.985,174.827 72.5,174.5C 72.1936,171.615 72.5269,168.948 73.5,166.5C 73.5,169.5 73.5,172.5 73.5,175.5C 63.1667,175.5 52.8333,175.5 42.5,175.5C 42.5,159.833 42.5,144.167 42.5,128.5 Z"/></g>
<g><path style="opacity:1" fill="#e20809" d="M 47.5,137.5 C 56.6836,141.217 66.3502,143.884 76.5,145.5C 94.1572,146.666 111.824,146.833 129.5,146C 138.178,143.013 147.178,141.513 156.5,141.5C 138.723,146.916 120.389,148.916 101.5,147.5C 86.7404,147.86 72.0738,147.026 57.5,145C 55.0021,142.556 52.0021,141.389 48.5,141.5C 47.9544,150.652 48.7877,159.652 51,168.5C 53.4759,168.547 55.8092,168.214 58,167.5C 59.5059,169.174 61.3393,170.174 63.5,170.5C 62.9919,167.824 62.8253,165.157 63,162.5C 64.117,163.949 64.7837,165.616 65,167.5C 65.6891,168.357 66.5224,169.023 67.5,169.5C 68.1667,167.5 68.8333,165.5 69.5,163.5C 70.2508,164.376 70.7508,165.376 71,166.5C 71.8747,163.785 73.7081,162.452 76.5,162.5C 75.4884,163.872 74.4884,165.205 73.5,166.5C 72.5269,168.948 72.1936,171.615 72.5,174.5C 62.985,174.827 53.6517,174.494 44.5,173.5C 45.1217,172.373 45.955,171.373 47,170.5C 47.4998,159.505 47.6665,148.505 47.5,137.5 Z"/></g>
<g><path style="opacity:1" fill="#cd2023" d="M 188.5,159.5 C 196.92,160.407 199.92,165.074 197.5,173.5C 206.167,173.5 214.833,173.5 223.5,173.5C 224.167,173.5 224.5,173.833 224.5,174.5C 215.167,174.5 205.833,174.5 196.5,174.5C 196.728,167.956 194.061,162.956 188.5,159.5 Z"/></g>
<g><path style="opacity:1" fill="#323232" d="M 10.5,113.5 C 13.1667,115.167 15.8333,116.833 18.5,118.5C 16.1245,122.587 14.2911,126.92 13,131.5C 12.5,166.498 12.3333,201.498 12.5,236.5C 11.2817,230.363 10.4484,224.029 10,217.5C 8.93355,221.764 7.93355,226.097 7,230.5C 5.33694,215.21 4.33694,199.877 4,184.5C 3.50001,235.499 3.33334,286.499 3.5,337.5C 2.33451,267.001 2.16785,196.335 3,125.5C 3.11907,121.995 4.28574,118.995 6.5,116.5C 8.23033,115.974 9.56366,114.974 10.5,113.5 Z"/></g>
<g><path style="opacity:1" fill="#1a0000" d="M 82.5,158.5 C 91.5,158.5 100.5,158.5 109.5,158.5C 109.825,211.875 109.491,265.209 108.5,318.5C 108.5,319.167 108.167,319.5 107.5,319.5C 108.478,266.186 108.812,212.852 108.5,159.5C 99.8269,159.334 91.1603,159.5 82.5,160C 80.7128,161.319 78.7128,162.152 76.5,162.5C 77.8021,160.178 79.8021,158.845 82.5,158.5 Z"/></g>
<g><path style="opacity:1" fill="#7b1214" d="M 177.5,122.5 C 193.658,121.504 209.991,121.17 226.5,121.5C 226.5,139.5 226.5,157.5 226.5,175.5C 216.319,175.827 206.319,175.494 196.5,174.5C 205.833,174.5 215.167,174.5 224.5,174.5C 225.497,157.675 225.83,140.675 225.5,123.5C 209.675,122.504 193.675,122.17 177.5,122.5 Z"/></g>
<g><path style="opacity:1" fill="#d7363b" d="M 157.5,158.5 C 157.833,158.5 158.167,158.5 158.5,158.5C 158.175,212.209 158.509,265.875 159.5,319.5C 158.883,319.389 158.383,319.056 158,318.5C 157.5,265.168 157.333,211.834 157.5,158.5 Z"/></g>
<g><path style="opacity:1" fill="#f8262a" d="M 157.5,158.5 C 157.333,211.834 157.5,265.168 158,318.5C 158.383,319.056 158.883,319.389 159.5,319.5C 159.5,320.833 159.5,322.167 159.5,323.5C 161.5,323.833 163.5,324.167 165.5,324.5C 165.5,325.833 165.5,327.167 165.5,328.5C 160.167,326.5 156.5,322.833 154.5,317.5C 154.5,306.5 154.5,295.5 154.5,284.5C 154.5,268.167 154.5,251.833 154.5,235.5C 154.333,209.831 154.5,184.165 155,158.5C 155.77,157.402 156.603,157.402 157.5,158.5 Z"/></g>
<g><path style="opacity:0.098" fill="#fafafa" d="M 264.5,119.5 C 265.6,121.277 266.434,123.277 267,125.5C 267.832,196.001 267.665,266.335 266.5,336.5C 266.5,268.833 266.5,201.167 266.5,133.5C 266.462,128.729 265.796,124.062 264.5,119.5 Z"/></g>
<g><path style="opacity:1" fill="#df3b3e" d="M 110.5,158.5 C 111.665,211.665 111.832,264.998 111,318.5C 110.617,319.056 110.117,319.389 109.5,319.5C 109.5,319.167 109.5,318.833 109.5,318.5C 110.495,265.238 110.829,211.905 110.5,158.5 Z"/></g>
<g><path style="opacity:0.999" fill="#1e1e1e" d="M 256.5,132.5 C 257.332,158.663 257.832,184.997 258,211.5C 258.333,207.833 258.667,204.167 259,200.5C 259.5,200 260,199.5 260.5,199C 258.513,196.53 258.013,193.697 259,190.5C 259.333,192.167 259.667,193.833 260,195.5C 260.333,195.167 260.667,194.833 261,194.5C 261.333,197.5 261.667,200.5 262,203.5C 262.333,197.167 262.667,190.833 263,184.5C 263.333,186.5 263.667,188.5 264,190.5C 264.396,171.322 265.23,152.322 266.5,133.5C 266.5,201.167 266.5,268.833 266.5,336.5C 263.381,351.62 254.381,361.287 239.5,365.5C 237.058,365.646 236.391,364.813 237.5,363C 235.983,361.221 235.149,361.721 235,364.5C 233.933,365.191 232.766,365.691 231.5,366C 232.308,366.308 232.975,366.808 233.5,367.5C 232.271,368.281 230.938,368.781 229.5,369C 230.598,369.77 230.598,370.603 229.5,371.5C 202.383,386.227 175.05,400.727 147.5,415C 136.725,418.928 126.392,418.094 116.5,412.5C 116.027,411.094 115.027,410.427 113.5,410.5C 110.605,409.601 107.938,408.267 105.5,406.5C 105.027,405.094 104.027,404.427 102.5,404.5C 89.5757,398.371 76.9091,391.704 64.5,384.5C 64.0269,383.094 63.0269,382.427 61.5,382.5C 61.1667,382.5 60.8333,382.5 60.5,382.5C 60.0269,381.094 59.0269,380.427 57.5,380.5C 43.6344,373.899 29.9677,366.732 16.5,359C 11.4765,355.084 7.80979,350.251 5.5,344.5C 5.41423,343.504 5.74756,342.671 6.5,342C 5.18586,341.015 4.18586,339.848 3.5,338.5C 3.5,338.167 3.5,337.833 3.5,337.5C 3.33334,286.499 3.50001,235.499 4,184.5C 4.33694,199.877 5.33694,215.21 7,230.5C 7.93355,226.097 8.93355,221.764 10,217.5C 10.4484,224.029 11.2817,230.363 12.5,236.5C 12.3334,268.502 12.5,300.502 13,332.5C 13.6048,337.607 15.7715,341.941 19.5,345.5C 54.489,365.123 89.8223,384.29 125.5,403C 132.313,405.314 138.98,404.981 145.5,402C 178.643,383.765 211.976,366.098 245.5,349C 249.422,345.749 252.588,341.916 255,337.5C 256.49,269.225 256.99,200.891 256.5,132.5 Z"/></g>
<g><path style="opacity:1" fill="#5d0e10" d="M 109.5,158.5 C 109.833,158.5 110.167,158.5 110.5,158.5C 110.829,211.905 110.495,265.238 109.5,318.5C 109.167,318.5 108.833,318.5 108.5,318.5C 109.491,265.209 109.825,211.875 109.5,158.5 Z"/></g>
<g><path style="opacity:1" fill="#d80000" d="M 154.5,235.5 C 154.5,251.833 154.5,268.167 154.5,284.5C 151.857,281.305 148.857,278.305 145.5,275.5C 143.028,276.97 141.195,278.97 140,281.5C 139.517,280.552 139.351,279.552 139.5,278.5C 137.5,278.5 135.5,278.5 133.5,278.5C 132.764,285.589 130.431,285.755 126.5,279C 125.207,278.51 123.873,278.343 122.5,278.5C 122.666,283.511 122.499,288.511 122,293.5C 121.667,293.833 121.333,294.167 121,294.5C 120.667,290.5 120.333,286.5 120,282.5C 118.746,285.976 118.079,289.642 118,293.5C 116.887,294.305 115.721,294.972 114.5,295.5C 114.5,275.833 114.5,256.167 114.5,236.5C 115.321,239.641 115.821,242.975 116,246.5C 116.662,244.187 117.162,241.854 117.5,239.5C 119.39,239.297 120.89,239.963 122,241.5C 122.39,245.659 123.556,246.159 125.5,243C 130.167,242.667 134.833,242.333 139.5,242C 140.047,241.075 140.713,240.242 141.5,239.5C 142.187,241.274 143.02,242.941 144,244.5C 145.145,242.074 146.478,239.741 148,237.5C 149.072,240.218 150.238,242.885 151.5,245.5C 152.717,242.109 153.717,238.776 154.5,235.5 Z"/></g>
<g><path style="opacity:1" fill="#f42c2d" d="M 82.5,158.5 C 92.9869,157.506 103.654,157.172 114.5,157.5C 114.5,183.833 114.5,210.167 114.5,236.5C 114.5,256.167 114.5,275.833 114.5,295.5C 114.5,300.5 114.5,305.5 114.5,310.5C 115.101,318.971 111.435,324.637 103.5,327.5C 105.041,324.607 107.041,321.94 109.5,319.5C 110.117,319.389 110.617,319.056 111,318.5C 111.832,264.998 111.665,211.665 110.5,158.5C 110.167,158.5 109.833,158.5 109.5,158.5C 100.5,158.5 91.5,158.5 82.5,158.5 Z"/></g>
<g><path style="opacity:1" fill="#cb0001" d="M 154.5,284.5 C 154.5,295.5 154.5,306.5 154.5,317.5C 151.303,308.922 149.803,299.922 150,290.5C 149.51,291.793 149.343,293.127 149.5,294.5C 148.325,294.281 147.325,294.614 146.5,295.5C 145.39,298.94 143.556,301.94 141,304.5C 138.106,303.22 134.939,302.554 131.5,302.5C 128.5,302.833 125.5,303.167 122.5,303.5C 118.742,305.015 117.909,307.348 120,310.5C 120.667,312.5 120.667,314.5 120,316.5C 117.908,314.525 116.075,312.525 114.5,310.5C 114.5,305.5 114.5,300.5 114.5,295.5C 115.721,294.972 116.887,294.305 118,293.5C 118.079,289.642 118.746,285.976 120,282.5C 120.333,286.5 120.667,290.5 121,294.5C 121.333,294.167 121.667,293.833 122,293.5C 122.499,288.511 122.666,283.511 122.5,278.5C 123.873,278.343 125.207,278.51 126.5,279C 130.431,285.755 132.764,285.589 133.5,278.5C 135.5,278.5 137.5,278.5 139.5,278.5C 139.351,279.552 139.517,280.552 140,281.5C 141.195,278.97 143.028,276.97 145.5,275.5C 148.857,278.305 151.857,281.305 154.5,284.5 Z"/></g>
<g><path style="opacity:1" fill="#c30001" d="M 154.5,317.5 C 156.5,322.833 160.167,326.5 165.5,328.5C 165.5,333.167 165.5,337.833 165.5,342.5C 144.833,342.5 124.167,342.5 103.5,342.5C 103.5,337.5 103.5,332.5 103.5,327.5C 111.435,324.637 115.101,318.971 114.5,310.5C 116.075,312.525 117.908,314.525 120,316.5C 120.667,314.5 120.667,312.5 120,310.5C 117.909,307.348 118.742,305.015 122.5,303.5C 125.5,303.167 128.5,302.833 131.5,302.5C 134.939,302.554 138.106,303.22 141,304.5C 143.556,301.94 145.39,298.94 146.5,295.5C 147.325,294.614 148.325,294.281 149.5,294.5C 149.343,293.127 149.51,291.793 150,290.5C 149.803,299.922 151.303,308.922 154.5,317.5 Z"/></g>
<g><path style="opacity:0.984" fill="#7f7f7f" d="M 3.5,338.5 C 4.18586,339.848 5.18586,341.015 6.5,342C 5.74756,342.671 5.41423,343.504 5.5,344.5C 3.92606,342.898 3.25939,340.898 3.5,338.5 Z"/></g>
<g><path style="opacity:1" fill="#a61618" d="M 108.5,318.5 C 108.833,318.5 109.167,318.5 109.5,318.5C 109.5,318.833 109.5,319.167 109.5,319.5C 107.041,321.94 105.041,324.607 103.5,327.5C 103.5,332.5 103.5,337.5 103.5,342.5C 124.167,342.5 144.833,342.5 165.5,342.5C 165.5,337.833 165.5,333.167 165.5,328.5C 165.5,327.167 165.5,325.833 165.5,324.5C 163.5,324.167 161.5,323.833 159.5,323.5C 159.5,322.167 159.5,320.833 159.5,319.5C 161.492,321.564 163.825,322.897 166.5,323.5C 166.5,330.167 166.5,336.833 166.5,343.5C 145.167,343.5 123.833,343.5 102.5,343.5C 102.5,336.833 102.5,330.167 102.5,323.5C 104.662,322.872 106.328,321.539 107.5,319.5C 108.167,319.5 108.5,319.167 108.5,318.5 Z"/></g>
<g><path style="opacity:1" fill="#520202" d="M 102.5,323.5 C 102.5,330.167 102.5,336.833 102.5,343.5C 123.833,343.5 145.167,343.5 166.5,343.5C 166.5,336.833 166.5,330.167 166.5,323.5C 167.491,330.313 167.825,337.313 167.5,344.5C 145.5,344.5 123.5,344.5 101.5,344.5C 101.175,337.313 101.509,330.313 102.5,323.5 Z"/></g>
<g><path style="opacity:0.975" fill="#404040" d="M 239.5,365.5 C 236.454,367.858 233.121,369.858 229.5,371.5C 230.598,370.603 230.598,369.77 229.5,369C 230.938,368.781 232.271,368.281 233.5,367.5C 232.975,366.808 232.308,366.308 231.5,366C 232.766,365.691 233.933,365.191 235,364.5C 235.149,361.721 235.983,361.221 237.5,363C 236.391,364.813 237.058,365.646 239.5,365.5 Z"/></g>
<g><path style="opacity:0.102" fill="#cecece" d="M 57.5,380.5 C 59.0269,380.427 60.0269,381.094 60.5,382.5C 58.9731,382.573 57.9731,381.906 57.5,380.5 Z"/></g>
<g><path style="opacity:0.075" fill="#aeaeae" d="M 61.5,382.5 C 63.0269,382.427 64.0269,383.094 64.5,384.5C 62.9731,384.573 61.9731,383.906 61.5,382.5 Z"/></g>
<g><path style="opacity:0.153" fill="#d4d4d4" d="M 102.5,404.5 C 104.027,404.427 105.027,405.094 105.5,406.5C 103.973,406.573 102.973,405.906 102.5,404.5 Z"/></g>
<g><path style="opacity:0.11" fill="#b6b6b6" d="M 113.5,410.5 C 115.027,410.427 116.027,411.094 116.5,412.5C 114.973,412.573 113.973,411.906 113.5,410.5 Z"/></g>
</svg>
